<svg version="1.1" viewBox="0.0 0.0 960.0 540.0" fill="none" stroke="none" stroke-linecap="square" stroke-miterlimit="10" xmlns:xlink="http://www.w3.org/1999/xlink" xmlns="http://www.w3.org/2000/svg"><clipPath id="g11a8898941b_2_54.0"><path d="m0 0l960.0 0l0 540.0l-960.0 0l0 -540.0z" clip-rule="nonzero"/></clipPath><g clip-path="url(#g11a8898941b_2_54.0)"><path fill="#000000" fill-opacity="0.0" d="m0 0l960.0 0l0 540.0l-960.0 0z" fill-rule="evenodd"/><path fill="#f4efe7" d="m207.87402 199.12599l310.49646 0l0 105.67381l-310.49646 0l0 -105.67381" fill-rule="evenodd"/><path fill="#ded5b9" d="m128.50394 1.4094489l292.65326 0l0 197.64749l-292.65326 0l0 -197.64749" fill-rule="evenodd"/><path fill="#e2ded7" d="m422.54593 1.4514436l95.95981 0l0 197.64749l-95.95981 0l0 -197.64749" fill-rule="evenodd"/><path fill="#6e6967" d="m491.09186 76.31833c0 3.6047897 -0.94158936 7.155777 -2.744049 10.276344c-1.8293457 3.1205597 -4.411957 5.7030945 -7.5326233 7.505493c-3.120636 1.802391 -6.671753 2.7708435 -10.276642 2.7708435c-3.604889 0 -7.156006 -0.96845245 -10.276642 -2.7708435c-3.1206665 -1.8023987 -5.730194 -4.3849335 -7.5326233 -7.505493c-1.8024597 -3.1205673 -2.744049 -6.6715546 -2.744049 -10.276344c0 -3.6047897 0.94158936 -7.155777 2.744049 -10.276337c1.8024292 -3.1205635 4.411957 -5.7299995 7.5326233 -7.5323944c3.120636 -1.8023949 6.671753 -2.743946 10.276642 -2.743946c3.604889 0 7.156006 0.9415512 10.276642 2.743946c3.1206665 1.8023949 5.7032776 4.411831 7.5326233 7.5323944c1.8024597 3.1205597 2.744049 6.671547 2.744049 10.276337" fill-rule="evenodd"/><path fill="#ffffff" d="m473.90137 84.57706c-0.91467285 0.45732117 -2.7171326 0.91464996 -5.057617 0.91464996c-5.4073486 0 -9.4696045 -3.416481 -9.4696045 -9.7114105c0 -5.999016 4.062256 -10.061127 10.007629 -10.061127c2.3943176 0 3.9008179 0.51112366 4.5464783 0.8339386l-0.5918579 2.04451c-0.94155884 -0.45732117 -2.2866821 -0.807045 -3.8739014 -0.807045c-4.492676 0 -7.478821 2.878456 -7.478821 7.9090195c0 4.7077484 2.690216 7.720703 7.371216 7.720703c1.5065308 0 3.0399475 -0.32281494 4.0353394 -0.807045l0.5111389 1.9638062" fill-rule="evenodd"/><path fill="#ffffff" d="m477.0221 66.01508l2.475006 0l0 19.180702l-2.475006 0l0 -19.180702" fill-rule="evenodd"/><path fill="#e2ded7" d="m131.84251 304.4357l310.43573 0l0 198.96451l-310.43573 0l0 -198.96451" fill-rule="evenodd"/><path fill="#000000" fill-opacity="0.0" d="m239.01323 99.14817l71.68504 0l0 16.472443l-71.68504 0z" fill-rule="evenodd"/><path fill="#000000" d="m242.41948 112.16917q-0.9375 0 -1.5625 -0.40625q-0.625 -0.40625 -0.953125 -1.109375q-0.3125 -0.71875 -0.359375 -1.65625l1.328125 -0.359375q0.046875 0.578125 0.1875 1.109375q0.140625 0.53125 0.453125 0.875q0.328125 0.34375 0.90625 0.34375q0.59375 0 0.890625 -0.328125q0.3125 -0.328125 0.3125 -0.9375q0 -0.75 -0.34375 -1.1875q-0.328125 -0.453125 -0.84375 -0.90625l-1.828125 -1.609375q-0.53125 -0.46875 -0.796875 -1.03125q-0.25 -0.5625 -0.25 -1.375q0 -1.203125 0.6875 -1.859375q0.6875 -0.65625 1.859375 -0.65625q0.65625 0 1.140625 0.171875q0.484375 0.171875 0.8125 0.515625q0.328125 0.34375 0.515625 0.875q0.203125 0.53125 0.28125 1.25l-1.296875 0.34375q-0.03125 -0.53125 -0.15625 -0.984375q-0.125 -0.453125 -0.421875 -0.71875q-0.296875 -0.28125 -0.875 -0.28125q-0.5625 0 -0.875 0.3125q-0.3125 0.296875 -0.3125 0.875q0 0.5 0.15625 0.828125q0.171875 0.3125 0.5625 0.65625l1.828125 1.609375q0.625 0.53125 1.09375 1.28125q0.46875 0.75 0.46875 1.765625q0 0.796875 -0.34375 1.390625q-0.328125 0.578125 -0.921875 0.890625q-0.578125 0.3125 -1.34375 0.3125zm3.1922455 -0.125l2.3125 -10.875l1.46875 0l2.3125 10.875l-1.4375 0l-0.484375 -2.734375l-2.21875 0l-0.53125 2.734375l-1.421875 0zm2.15625 -3.828125l1.8125 0l-0.921875 -4.890625l-0.890625 4.890625zm5.0410156 3.828125l0 -10.875l1.515625 0l0 9.78125l2.78125 0l0 1.09375l-4.296875 0zm4.73468 0l2.3125 -10.875l1.46875 0l2.3125 10.875l-1.4375 0l-0.484375 -2.734375l-2.21875 0l-0.53125 2.734375l-1.421875 0zm2.15625 -3.828125l1.8125 0l-0.921875 -4.890625l-0.890625 4.890625zm8.114624 3.828125l0 -10.875l2.359375 0q1.21875 0 1.921875 0.375q0.703125 0.359375 1.0 1.109375q0.296875 0.734375 0.296875 1.828125l0 4.0q0 1.15625 -0.296875 1.953125q-0.296875 0.796875 -0.984375 1.203125q-0.671875 0.40625 -1.8125 0.40625l-2.484375 0zm1.515625 -1.09375l0.859375 0q0.828125 0 1.171875 -0.3125q0.359375 -0.328125 0.4375 -0.9375q0.078125 -0.625 0.078125 -1.5l0 -3.53125q0 -0.84375 -0.109375 -1.359375q-0.109375 -0.53125 -0.484375 -0.765625q-0.359375 -0.25 -1.125 -0.25l-0.828125 0l0 8.65625zm5.5576477 1.09375l0 -10.875l4.21875 0l0 1.125l-2.703125 0l0 3.609375l2.1875 0l0 1.0625l-2.1875 0l0 3.984375l2.734375 0l0 1.09375l-4.25 0zm7.942505 0l2.3125 -10.875l1.46875 0l2.3125 10.875l-1.4375 0l-0.484375 -2.734375l-2.21875 0l-0.53125 2.734375l-1.421875 0zm2.15625 -3.828125l1.8125 0l-0.921875 -4.890625l-0.890625 4.890625zm7.8535156 3.953125q-1.1875 0 -1.828125 -0.46875q-0.625 -0.46875 -0.859375 -1.3125q-0.21875 -0.859375 -0.21875 -2.015625l0 -7.203125l1.453125 0l0 7.28125q0 0.6875 0.09375 1.265625q0.09375 0.578125 0.40625 0.921875q0.3125 0.328125 0.953125 0.328125q0.640625 0 0.9375 -0.328125q0.3125 -0.34375 0.40625 -0.921875q0.09375 -0.578125 0.09375 -1.265625l0 -7.28125l1.4375 0l0 7.203125q0 1.15625 -0.234375 2.015625q-0.21875 0.84375 -0.84375 1.3125q-0.625 0.46875 -1.796875 0.46875zm4.475525 -0.125l0 -10.875l1.515625 0l0 9.78125l2.78125 0l0 1.09375l-4.296875 0zm4.73468 0l2.3125 -10.875l1.46875 0l2.3125 10.875l-1.4375 0l-0.484375 -2.734375l-2.21875 0l-0.53125 2.734375l-1.421875 0zm2.15625 -3.828125l1.8125 0l-0.921875 -4.890625l-0.890625 4.890625z" fill-rule="nonzero"/><path fill="#000000" fill-opacity="0.0" d="m251.75339 112.80836l46.204712 0l0 29.165352l-46.204712 0z" fill-rule="evenodd"/><path fill="#f57f20" d="m257.78464 135.84311q-1.65625 0 -2.765625 -0.71875q-1.109375 -0.71875 -1.6875 -1.96875q-0.5625 -1.265625 -0.65625 -2.921875l2.375 -0.640625q0.078125 1.015625 0.328125 1.96875q0.25 0.953125 0.8125 1.5625q0.578125 0.59375 1.59375 0.59375q1.046875 0 1.578125 -0.578125q0.546875 -0.578125 0.546875 -1.671875q0 -1.3125 -0.59375 -2.109375q-0.59375 -0.796875 -1.5 -1.59375l-3.234375 -2.859375q-0.953125 -0.828125 -1.40625 -1.8125q-0.453125 -0.984375 -0.453125 -2.4375q0 -2.125 1.21875 -3.28125q1.21875 -1.171875 3.296875 -1.171875q1.140625 0 2.0 0.296875q0.875 0.296875 1.453125 0.921875q0.59375 0.609375 0.9375 1.5625q0.34375 0.9375 0.46875 2.1875l-2.28125 0.625q-0.078125 -0.953125 -0.296875 -1.75q-0.203125 -0.796875 -0.75 -1.28125q-0.53125 -0.484375 -1.53125 -0.484375q-1.0 0 -1.5625 0.53125q-0.546875 0.53125 -0.546875 1.578125q0 0.875 0.296875 1.453125q0.296875 0.5625 0.96875 1.15625l3.25 2.859375q1.09375 0.953125 1.921875 2.28125q0.828125 1.3125 0.828125 3.109375q0 1.421875 -0.59375 2.46875q-0.59375 1.03125 -1.625 1.578125q-1.03125 0.546875 -2.390625 0.546875zm6.7098694 -0.21875l0 -19.25l4.421875 0q1.296875 0 2.265625 0.28125q0.96875 0.28125 1.609375 0.890625q0.640625 0.59375 0.9375 1.515625q0.3125 0.90625 0.3125 2.140625q0 1.1875 -0.296875 2.0625q-0.296875 0.859375 -0.90625 1.359375q-0.59375 0.5 -1.546875 0.640625q1.15625 0.265625 1.875 0.890625q0.71875 0.625 1.0625 1.609375q0.34375 0.984375 0.34375 2.375q0 1.234375 -0.296875 2.265625q-0.28125 1.015625 -0.890625 1.734375q-0.59375 0.703125 -1.546875 1.09375q-0.9375 0.390625 -2.21875 0.390625l-5.125 0zm2.6875 -1.921875l1.796875 0q1.8125 0 2.40625 -0.84375q0.609375 -0.84375 0.609375 -2.71875q0 -1.21875 -0.328125 -2.03125q-0.3125 -0.828125 -1.015625 -1.234375q-0.6875 -0.421875 -1.875 -0.421875l-1.59375 0l0 7.25zm0 -9.296875l1.59375 0q1.140625 0 1.78125 -0.3125q0.640625 -0.328125 0.890625 -1.03125q0.265625 -0.71875 0.265625 -1.859375q0 -1.328125 -0.40625 -1.921875q-0.40625 -0.59375 -1.265625 -0.75q-0.84375 -0.15625 -2.21875 -0.15625l-0.640625 0l0 6.03125zm14.4219055 11.4375q-1.640625 0 -2.703125 -0.734375q-1.046875 -0.75 -1.5625 -2.03125q-0.515625 -1.28125 -0.515625 -2.921875l0 -8.296875q0 -1.6875 0.5 -2.953125q0.5 -1.265625 1.546875 -1.984375q1.0625 -0.71875 2.734375 -0.71875q1.65625 0 2.703125 0.71875q1.046875 0.71875 1.546875 1.984375q0.5 1.265625 0.5 2.953125l0 8.296875q0 1.671875 -0.515625 2.953125q-0.5 1.28125 -1.546875 2.015625q-1.046875 0.71875 -2.6875 0.71875zm0 -2.09375q0.90625 0 1.359375 -0.515625q0.46875 -0.53125 0.640625 -1.34375q0.1875 -0.828125 0.1875 -1.703125l0 -8.34375q0 -0.921875 -0.171875 -1.734375q-0.15625 -0.828125 -0.625 -1.328125q-0.46875 -0.5 -1.390625 -0.5q-0.921875 0 -1.40625 0.5q-0.46875 0.5 -0.640625 1.328125q-0.171875 0.8125 -0.171875 1.734375l0 8.34375q0 0.875 0.171875 1.703125q0.1875 0.8125 0.671875 1.34375q0.5 0.515625 1.375 0.515625zm10.193054 1.875l0 -15.921875q-0.015625 0.015625 -0.53125 0.140625q-0.515625 0.125 -1.15625 0.25q-0.640625 0.109375 -1.140625 0.203125q-0.5 0.09375 -0.515625 0.09375l0 -1.921875q0.390625 -0.09375 0.921875 -0.265625q0.546875 -0.171875 1.09375 -0.40625q0.5625 -0.234375 1.078125 -0.59375q0.515625 -0.359375 0.875 -0.828125l1.921875 0l0 19.25l-2.546875 0z" fill-rule="nonzero"/><path fill="#000000" fill-opacity="0.0" d="m429.56204 102.22458l80.88187 0l0 13.952759l-80.88187 0z" fill-rule="evenodd"/><path fill="#000000" d="m429.97043 112.99578l2.140625 -10.09375l1.359375 0l2.15625 10.09375l-1.328125 0l-0.46875 -2.546875l-2.046875 0l-0.484375 2.546875l-1.328125 0zm2.0 -3.546875l1.671875 0l-0.84375 -4.546875l-0.828125 4.546875zm4.6737976 3.546875l0 -10.09375l1.40625 0l0 9.078125l2.578125 0l0 1.015625l-3.984375 0zm4.928253 0l0.1875 -10.09375l1.375 0l1.78125 8.1875l1.796875 -8.1875l1.359375 0l0.1875 10.09375l-1.125 0l-0.109375 -7.328125l-1.703125 7.328125l-0.796875 0l-1.703125 -7.328125l-0.109375 7.328125l-1.140625 0zm10.812775 0.109375q-1.015625 0 -1.625 -0.390625q-0.609375 -0.40625 -0.875 -1.140625q-0.265625 -0.75 -0.265625 -1.734375l0 -3.828125q0 -1.0 0.265625 -1.71875q0.28125 -0.71875 0.875 -1.09375q0.609375 -0.375 1.625 -0.375q1.03125 0 1.625 0.390625q0.59375 0.375 0.859375 1.09375q0.265625 0.703125 0.265625 1.703125l0 3.828125q0 0.984375 -0.265625 1.71875q-0.265625 0.734375 -0.859375 1.140625q-0.59375 0.40625 -1.625 0.40625zm0 -1.109375q0.5625 0 0.84375 -0.21875q0.296875 -0.234375 0.390625 -0.65625q0.09375 -0.421875 0.09375 -0.984375l0 -4.40625q0 -0.5625 -0.09375 -0.96875q-0.09375 -0.40625 -0.390625 -0.625q-0.28125 -0.21875 -0.84375 -0.21875q-0.5625 0 -0.859375 0.21875q-0.28125 0.21875 -0.390625 0.625q-0.09375 0.40625 -0.09375 0.96875l0 4.40625q0 0.5625 0.09375 0.984375q0.109375 0.421875 0.390625 0.65625q0.296875 0.21875 0.859375 0.21875zm3.5090942 1.0l2.109375 -5.28125l-2.0625 -4.8125l1.296875 0l1.53125 3.5625l1.40625 -3.5625l1.296875 0l-2.109375 4.921875l2.21875 5.171875l-1.3125 0l-1.640625 -3.796875l-1.421875 3.796875l-1.3125 0zm6.0805054 0l2.140625 -10.09375l1.359375 0l2.15625 10.09375l-1.328125 0l-0.46875 -2.546875l-2.046875 0l-0.484375 2.546875l-1.328125 0zm2.0 -3.546875l1.671875 0l-0.84375 -4.546875l-0.828125 4.546875zm4.6737976 3.546875l0 -10.09375l2.03125 0q1.015625 0 1.671875 0.28125q0.65625 0.265625 0.96875 0.859375q0.328125 0.578125 0.328125 1.546875q0 0.578125 -0.125 1.0625q-0.125 0.484375 -0.40625 0.8125q-0.265625 0.328125 -0.71875 0.46875l1.4375 5.0625l-1.359375 0l-1.328125 -4.734375l-1.09375 0l0 4.734375l-1.40625 0zm1.40625 -5.734375l0.546875 0q0.59375 0 0.96875 -0.15625q0.375 -0.15625 0.546875 -0.515625q0.171875 -0.359375 0.171875 -1.0q0 -0.890625 -0.328125 -1.28125q-0.328125 -0.390625 -1.28125 -0.390625l-0.625 0l0 3.34375zm5.13501 5.734375l0 -10.09375l1.375 0l0 10.09375l-1.375 0zm3.010254 0l0 -10.09375l3.90625 0l0 1.015625l-2.5 0l0 3.359375l1.9375 0l0 1.0l-1.9375 0l0 4.71875l-1.40625 0zm4.09787 0l2.140625 -10.09375l1.359375 0l2.15625 10.09375l-1.328125 0l-0.46875 -2.546875l-2.046875 0l-0.484375 2.546875l-1.328125 0zm2.0 -3.546875l1.671875 0l-0.84375 -4.546875l-0.828125 4.546875zm4.6737976 3.546875l0 -10.09375l2.1875 0q1.125 0 1.78125 0.34375q0.65625 0.34375 0.9375 1.03125q0.28125 0.6875 0.28125 1.703125l0 3.71875q0 1.0625 -0.28125 1.796875q-0.28125 0.734375 -0.921875 1.125q-0.625 0.375 -1.671875 0.375l-2.3125 0zm1.40625 -1.015625l0.796875 0q0.78125 0 1.09375 -0.296875q0.328125 -0.296875 0.390625 -0.859375q0.078125 -0.578125 0.078125 -1.390625l0 -3.28125q0 -0.78125 -0.109375 -1.265625q-0.09375 -0.484375 -0.4375 -0.703125q-0.328125 -0.234375 -1.046875 -0.234375l-0.765625 0l0 8.03125zm7.7346497 1.125q-1.015625 0 -1.625 -0.390625q-0.609375 -0.40625 -0.875 -1.140625q-0.265625 -0.75 -0.265625 -1.734375l0 -3.828125q0 -1.0 0.265625 -1.71875q0.28125 -0.71875 0.875 -1.09375q0.609375 -0.375 1.625 -0.375q1.03125 0 1.625 0.390625q0.59375 0.375 0.859375 1.09375q0.265625 0.703125 0.265625 1.703125l0 3.828125q0 0.984375 -0.265625 1.71875q-0.265625 0.734375 -0.859375 1.140625q-0.59375 0.40625 -1.625 0.40625zm0 -1.109375q0.5625 0 0.84375 -0.21875q0.296875 -0.234375 0.390625 -0.65625q0.09375 -0.421875 0.09375 -0.984375l0 -4.40625q0 -0.5625 -0.09375 -0.96875q-0.09375 -0.40625 -0.390625 -0.625q-0.28125 -0.21875 -0.84375 -0.21875q-0.5625 0 -0.859375 0.21875q-0.28125 0.21875 -0.390625 0.625q-0.09375 0.40625 -0.09375 0.96875l0 4.40625q0 0.5625 0.09375 0.984375q0.109375 0.421875 0.390625 0.65625q0.296875 0.21875 0.859375 0.21875zm6.720215 1.0l0 -0.953125l2.5625 -3.984375q0.28125 -0.453125 0.515625 -0.84375q0.25 -0.390625 0.40625 -0.8125q0.15625 -0.4375 0.15625 -0.984375q0 -0.703125 -0.21875 -1.09375q-0.21875 -0.40625 -0.78125 -0.40625q-0.484375 0 -0.75 0.265625q-0.25 0.25 -0.359375 0.6875q-0.09375 0.421875 -0.09375 0.90625l0 0.328125l-1.328125 0l0 -0.34375q0 -0.90625 0.234375 -1.5625q0.25 -0.65625 0.78125 -1.015625q0.546875 -0.359375 1.453125 -0.359375q1.21875 0 1.8125 0.6875q0.59375 0.6875 0.59375 1.90625q0 0.65625 -0.15625 1.140625q-0.15625 0.484375 -0.40625 0.90625q-0.25 0.421875 -0.546875 0.875l-2.3125 3.53125l3.1875 0l0 1.125l-4.75 0z" fill-rule="nonzero"/><path fill="#000000" fill-opacity="0.0" d="m128.46382 238.91315l75.504196 0l0 30.424103l-75.504196 0z" fill-rule="evenodd"/><path fill="#000000" d="m144.8637 250.42017q-1.046875 0 -1.734375 -0.4375q-0.6875 -0.453125 -1.046875 -1.234375q-0.34375 -0.796875 -0.40625 -1.828125l1.484375 -0.40625q0.03125 0.640625 0.1875 1.234375q0.15625 0.59375 0.515625 0.96875q0.359375 0.375 1.0 0.375q0.640625 0 0.96875 -0.359375q0.34375 -0.359375 0.34375 -1.046875q0 -0.8125 -0.375 -1.296875q-0.375 -0.5 -0.9375 -1.0l-2.0 -1.78125q-0.59375 -0.515625 -0.875 -1.125q-0.28125 -0.625 -0.28125 -1.53125q0 -1.3125 0.75 -2.03125q0.75 -0.734375 2.0625 -0.734375q0.703125 0 1.234375 0.1875q0.546875 0.1875 0.90625 0.578125q0.375 0.375 0.578125 0.96875q0.21875 0.578125 0.296875 1.359375l-1.421875 0.390625q-0.046875 -0.59375 -0.1875 -1.078125q-0.125 -0.5 -0.453125 -0.796875q-0.328125 -0.3125 -0.953125 -0.3125q-0.625 0 -0.984375 0.328125q-0.34375 0.328125 -0.34375 0.984375q0 0.546875 0.1875 0.90625q0.1875 0.34375 0.609375 0.71875l2.015625 1.78125q0.6875 0.59375 1.203125 1.421875q0.515625 0.8125 0.515625 1.9375q0 0.890625 -0.375 1.53125q-0.359375 0.640625 -1.0 0.984375q-0.640625 0.34375 -1.484375 0.34375zm3.5145874 -0.140625l2.546875 -11.984375l1.609375 0l2.5625 11.984375l-1.578125 0l-0.546875 -3.015625l-2.453125 0l-0.578125 3.015625l-1.5625 0zm2.375 -4.21875l1.984375 0l-1.0 -5.40625l-0.984375 5.40625zm5.6394806 4.21875l0 -11.984375l1.640625 0l0 11.984375l-1.640625 0zm0.390625 -12.703125l0.875 -2.921875l1.59375 0l-1.65625 2.921875l-0.8125 0zm3.2008972 12.703125l0 -11.984375l2.59375 0q1.34375 0 2.109375 0.40625q0.78125 0.40625 1.109375 1.21875q0.34375 0.8125 0.34375 2.03125l0 4.40625q0 1.265625 -0.34375 2.140625q-0.328125 0.875 -1.078125 1.328125q-0.75 0.453125 -2.0 0.453125l-2.734375 0zm1.671875 -1.203125l0.9375 0q0.921875 0 1.296875 -0.34375q0.390625 -0.359375 0.46875 -1.03125q0.09375 -0.6875 0.09375 -1.65625l0 -3.890625q0 -0.9375 -0.125 -1.5q-0.109375 -0.578125 -0.515625 -0.84375q-0.40625 -0.28125 -1.265625 -0.28125l-0.890625 0l0 9.546875zm5.469879 1.203125l2.546875 -11.984375l1.609375 0l2.5625 11.984375l-1.578125 0l-0.546875 -3.015625l-2.453125 0l-0.578125 3.015625l-1.5625 0zm2.375 -4.21875l1.984375 0l-1.0 -5.40625l-0.984375 5.40625zm8.94986 4.21875l0 -11.984375l2.59375 0q1.34375 0 2.109375 0.40625q0.78125 0.40625 1.109375 1.21875q0.34375 0.8125 0.34375 2.03125l0 4.40625q0 1.265625 -0.34375 2.140625q-0.328125 0.875 -1.078125 1.328125q-0.75 0.453125 -2.0 0.453125l-2.734375 0zm1.671875 -1.203125l0.9375 0q0.921875 0 1.296875 -0.34375q0.390625 -0.359375 0.46875 -1.03125q0.09375 -0.6875 0.09375 -1.65625l0 -3.890625q0 -0.9375 -0.125 -1.5q-0.109375 -0.578125 -0.515625 -0.84375q-0.40625 -0.28125 -1.265625 -0.28125l-0.890625 0l0 9.546875zm6.126129 1.203125l0 -11.984375l4.640625 0l0 1.234375l-2.96875 0l0 3.96875l2.40625 0l0 1.1875l-2.40625 0l0 4.390625l3.0 0l0 1.203125l-4.671875 0z" fill-rule="nonzero"/><path fill="#000000" d="m132.24736 264.48755l0 -11.984375l4.640625 0l0 1.234375l-2.96875 0l0 3.96875l2.40625 0l0 1.1875l-2.40625 0l0 4.390625l3.0 0l0 1.203125l-4.671875 0zm5.9911194 0l0.21875 -11.984375l1.640625 0l2.125 9.71875l2.125 -9.71875l1.625 0l0.21875 11.984375l-1.34375 0l-0.125 -8.703125l-2.03125 8.703125l-0.953125 0l-2.015625 -8.703125l-0.125 8.703125l-1.359375 0zm9.797256 0l0 -11.984375l4.640625 0l0 1.234375l-2.96875 0l0 3.96875l2.40625 0l0 1.1875l-2.40625 0l0 4.390625l3.0 0l0 1.203125l-4.671875 0zm6.0223694 0l0 -11.984375l2.40625 0q1.203125 0 1.984375 0.328125q0.78125 0.3125 1.15625 1.015625q0.375 0.703125 0.375 1.84375q0 0.6875 -0.15625 1.265625q-0.140625 0.5625 -0.46875 0.953125q-0.3125 0.390625 -0.84375 0.578125l1.703125 6.0l-1.625 0l-1.5625 -5.625l-1.296875 0l0 5.625l-1.671875 0zm1.671875 -6.828125l0.625 0q0.71875 0 1.15625 -0.171875q0.453125 -0.171875 0.65625 -0.59375q0.203125 -0.4375 0.203125 -1.203125q0 -1.0625 -0.390625 -1.515625q-0.375 -0.46875 -1.515625 -0.46875l-0.734375 0l0 3.953125zm8.851501 6.96875q-1.125 0 -1.796875 -0.46875q-0.671875 -0.484375 -0.984375 -1.40625q-0.296875 -0.921875 -0.296875 -2.203125l0 -4.015625q0 -1.3125 0.265625 -2.234375q0.28125 -0.921875 0.984375 -1.40625q0.703125 -0.5 1.96875 -0.5q1.125 0 1.8125 0.390625q0.6875 0.375 1.0 1.15625q0.3125 0.765625 0.3125 1.953125l0 0.4375l-1.578125 0l0 -0.359375q0 -0.796875 -0.109375 -1.28125q-0.09375 -0.5 -0.421875 -0.734375q-0.3125 -0.25 -0.984375 -0.25q-0.734375 0 -1.078125 0.34375q-0.328125 0.328125 -0.421875 0.921875q-0.078125 0.578125 -0.078125 1.3125l0 4.4375q0 0.859375 0.125 1.4375q0.140625 0.578125 0.484375 0.859375q0.359375 0.28125 1.015625 0.28125q0.640625 0 1.0 -0.3125q0.359375 -0.3125 0.484375 -0.90625q0.140625 -0.609375 0.140625 -1.515625l0 -0.828125l-1.53125 0l0 -1.1875l3.03125 0l0 5.9375l-1.046875 0l-0.15625 -1.375q-0.234375 0.671875 -0.75 1.09375q-0.5 0.421875 -1.390625 0.421875zm5.072632 -0.140625l0 -11.984375l4.640625 0l0 1.234375l-2.96875 0l0 3.96875l2.40625 0l0 1.1875l-2.40625 0l0 4.390625l3.0 0l0 1.203125l-4.671875 0zm0.28125 -12.828125l1.28125 -2.59375l1.609375 0l1.296875 2.59375l-1.203125 0l-0.90625 -1.796875l-0.890625 1.796875l-1.1875 0zm5.7411194 12.828125l0 -11.984375l1.140625 0l3.390625 7.953125l0 -7.953125l1.390625 0l0 11.984375l-1.0625 0l-3.4375 -8.1875l0 8.1875l-1.421875 0zm10.812805 0.140625q-1.28125 0 -1.984375 -0.53125q-0.703125 -0.546875 -0.984375 -1.4375q-0.265625 -0.90625 -0.265625 -2.015625l0 -4.234375q0 -1.21875 0.265625 -2.109375q0.28125 -0.90625 0.984375 -1.40625q0.703125 -0.5 1.984375 -0.5q1.125 0 1.78125 0.421875q0.65625 0.40625 0.9375 1.1875q0.296875 0.765625 0.296875 1.84375l0 0.953125l-1.578125 0l0 -0.84375q0 -0.671875 -0.078125 -1.171875q-0.0625 -0.515625 -0.359375 -0.796875q-0.296875 -0.28125 -0.984375 -0.28125q-0.71875 0 -1.046875 0.296875q-0.3125 0.296875 -0.421875 0.859375q-0.09375 0.546875 -0.09375 1.296875l0 4.75q0 0.90625 0.140625 1.4375q0.15625 0.515625 0.5 0.734375q0.34375 0.21875 0.921875 0.21875q0.671875 0 0.96875 -0.296875q0.296875 -0.3125 0.375 -0.84375q0.078125 -0.53125 0.078125 -1.234375l0 -0.890625l1.578125 0l0 0.890625q0 1.09375 -0.265625 1.9375q-0.265625 0.828125 -0.921875 1.296875q-0.640625 0.46875 -1.828125 0.46875zm4.6985626 -0.140625l0 -11.984375l1.640625 0l0 11.984375l-1.640625 0zm2.9352722 0l2.546875 -11.984375l1.609375 0l2.5625 11.984375l-1.578125 0l-0.546875 -3.015625l-2.453125 0l-0.578125 3.015625l-1.5625 0zm2.375 -4.21875l1.984375 0l-1.0 -5.40625l-0.984375 5.40625z" fill-rule="nonzero"/><path fill="#000000" fill-opacity="0.0" d="m447.0602 112.807915l50.92914 0l0 29.165352l-50.92914 0z" fill-rule="evenodd"/><path fill="#6e6967" d="m453.09146 135.84267q-1.65625 0 -2.765625 -0.71875q-1.109375 -0.71875 -1.6875 -1.96875q-0.5625 -1.265625 -0.65625 -2.921875l2.375 -0.640625q0.078125 1.015625 0.328125 1.96875q0.25 0.953125 0.8125 1.5625q0.578125 0.59375 1.59375 0.59375q1.046875 0 1.578125 -0.578125q0.546875 -0.578125 0.546875 -1.671875q0 -1.3125 -0.59375 -2.109375q-0.59375 -0.796875 -1.5 -1.59375l-3.234375 -2.859375q-0.953125 -0.828125 -1.40625 -1.8125q-0.453125 -0.984375 -0.453125 -2.4375q0 -2.125 1.21875 -3.28125q1.21875 -1.171875 3.296875 -1.171875q1.140625 0 2.0 0.296875q0.875 0.296875 1.453125 0.921875q0.59375 0.609375 0.9375 1.5625q0.34375 0.9375 0.46875 2.1875l-2.28125 0.625q-0.078125 -0.953125 -0.296875 -1.75q-0.203125 -0.796875 -0.75 -1.28125q-0.53125 -0.484375 -1.53125 -0.484375q-1.0 0 -1.5625 0.53125q-0.546875 0.53125 -0.546875 1.578125q0 0.875 0.296875 1.453125q0.296875 0.5625 0.96875 1.15625l3.25 2.859375q1.09375 0.953125 1.921875 2.28125q0.828125 1.3125 0.828125 3.109375q0 1.421875 -0.59375 2.46875q-0.59375 1.03125 -1.625 1.578125q-1.03125 0.546875 -2.390625 0.546875zm6.7098694 -0.21875l0 -19.25l4.421875 0q1.296875 0 2.265625 0.28125q0.96875 0.28125 1.609375 0.890625q0.640625 0.59375 0.9375 1.515625q0.3125 0.90625 0.3125 2.140625q0 1.1875 -0.296875 2.0625q-0.296875 0.859375 -0.90625 1.359375q-0.59375 0.5 -1.546875 0.640625q1.15625 0.265625 1.875 0.890625q0.71875 0.625 1.0625 1.609375q0.34375 0.984375 0.34375 2.375q0 1.234375 -0.296875 2.265625q-0.28125 1.015625 -0.890625 1.734375q-0.59375 0.703125 -1.546875 1.09375q-0.9375 0.390625 -2.21875 0.390625l-5.125 0zm2.6875 -1.921875l1.796875 0q1.8125 0 2.40625 -0.84375q0.609375 -0.84375 0.609375 -2.71875q0 -1.21875 -0.328125 -2.03125q-0.3125 -0.828125 -1.015625 -1.234375q-0.6875 -0.421875 -1.875 -0.421875l-1.59375 0l0 7.25zm0 -9.296875l1.59375 0q1.140625 0 1.78125 -0.3125q0.640625 -0.328125 0.890625 -1.03125q0.265625 -0.71875 0.265625 -1.859375q0 -1.328125 -0.40625 -1.921875q-0.40625 -0.59375 -1.265625 -0.75q-0.84375 -0.15625 -2.21875 -0.15625l-0.640625 0l0 6.03125zm14.4219055 11.4375q-1.640625 0 -2.703125 -0.734375q-1.046875 -0.75 -1.5625 -2.03125q-0.515625 -1.28125 -0.515625 -2.921875l0 -8.296875q0 -1.6875 0.5 -2.953125q0.5 -1.265625 1.546875 -1.984375q1.0625 -0.71875 2.734375 -0.71875q1.65625 0 2.703125 0.71875q1.046875 0.71875 1.546875 1.984375q0.5 1.265625 0.5 2.953125l0 8.296875q0 1.671875 -0.515625 2.953125q-0.5 1.28125 -1.546875 2.015625q-1.046875 0.71875 -2.6875 0.71875zm0 -2.09375q0.90625 0 1.359375 -0.515625q0.46875 -0.53125 0.640625 -1.34375q0.1875 -0.828125 0.1875 -1.703125l0 -8.34375q0 -0.921875 -0.171875 -1.734375q-0.15625 -0.828125 -0.625 -1.328125q-0.46875 -0.5 -1.390625 -0.5q-0.921875 0 -1.40625 0.5q-0.46875 0.5 -0.640625 1.328125q-0.171875 0.8125 -0.171875 1.734375l0 8.34375q0 0.875 0.171875 1.703125q0.1875 0.8125 0.671875 1.34375q0.5 0.515625 1.375 0.515625zm11.786804 2.09375q-1.5625 0 -2.609375 -0.59375q-1.046875 -0.59375 -1.578125 -1.703125q-0.515625 -1.125 -0.515625 -2.65625l0 -0.640625l2.515625 0q0 0.09375 0 0.203125q0 0.109375 0 0.234375q0.03125 0.84375 0.203125 1.546875q0.171875 0.6875 0.640625 1.09375q0.46875 0.390625 1.34375 0.390625q0.921875 0 1.390625 -0.4375q0.484375 -0.4375 0.640625 -1.234375q0.171875 -0.8125 0.171875 -1.859375q0 -1.53125 -0.5625 -2.484375q-0.546875 -0.96875 -1.953125 -1.0625q-0.0625 -0.015625 -0.171875 -0.015625q-0.109375 0 -0.1875 0l0 -2.546875q0.078125 0 0.171875 0q0.09375 0 0.171875 0q1.34375 -0.046875 1.9375 -0.703125q0.59375 -0.671875 0.59375 -2.21875q0 -1.3125 -0.4375 -2.09375q-0.4375 -0.78125 -1.734375 -0.78125q-1.3125 0 -1.75 0.875q-0.421875 0.859375 -0.46875 2.203125q0 0.09375 0 0.203125q0 0.109375 0 0.203125l-2.515625 0l0 -0.640625q0 -1.546875 0.515625 -2.640625q0.53125 -1.09375 1.578125 -1.6875q1.0625 -0.59375 2.640625 -0.59375q1.578125 0 2.625 0.59375q1.046875 0.59375 1.5625 1.703125q0.53125 1.109375 0.53125 2.65625q0 1.734375 -0.75 2.78125q-0.75 1.046875 -2.0 1.421875q0.875 0.265625 1.484375 0.90625q0.609375 0.640625 0.9375 1.625q0.328125 0.984375 0.328125 2.296875q0 1.703125 -0.484375 2.984375q-0.46875 1.265625 -1.515625 1.96875q-1.03125 0.703125 -2.75 0.703125z" fill-rule="nonzero"/><path fill="#f57f20" d="m262.3328 65.57624l26.33728 0l0 15.253105l-26.33728 0l0 -15.253105" fill-rule="evenodd"/><path fill="#f57f20" d="m295.3956 72.89344c0 3.631691 -0.94158936 7.1557693 -2.7440186 10.276337c-1.8024597 3.1205597 -4.4119873 5.7300034 -7.5326233 7.5323944c-3.1206665 1.802391 -6.671753 2.7439423 -10.276672 2.7439423c-3.604889 0 -7.1559753 -0.9415512 -10.276642 -2.7439423c-3.1206665 -1.802391 -5.7032776 -4.4118347 -7.5057373 -7.5323944c-1.8024445 -3.1205673 -2.7709198 -6.6446457 -2.7709198 -10.276337c0 -3.6047897 0.96847534 -7.1288757 2.7709198 -10.2763405c1.8024597 -3.1205635 4.385071 -5.703102 7.5057373 -7.505493c3.1206665 -1.8023949 6.671753 -2.743946 10.276642 -2.743946c3.6049194 0 7.156006 0.9415512 10.276672 2.743946c3.120636 1.802391 5.7301636 4.3849297 7.5326233 7.505493c1.8024292 3.1474648 2.7440186 6.6715508 2.7440186 10.2763405" fill-rule="evenodd"/><path fill="#ffffff" d="m260.44327 63.608463l30.176971 0l0 3.8555336l-30.176971 0z" fill-rule="evenodd"/><path fill="#ffffff" d="m260.42578 78.88643l30.17694 0l0 3.8555298l-30.17694 0z" fill-rule="evenodd"/><path fill="#ffffff" d="m290.60376 65.42314l0 15.545708l-3.8555298 0l0 -15.545708z" fill-rule="evenodd"/><path fill="#ffffff" d="m275.4782 75.793076l9.762421 0l0 6.944908l-9.762421 0z" fill-rule="evenodd"/><path fill="#ffffff" d="m264.28232 65.147156l0 15.545708l-3.8555298 0l0 -15.545708z" fill-rule="evenodd"/><path fill="#000000" d="m207.75558 197.8307l0 0c0.78486633 0 1.4211121 0.6362457 1.4211121 1.4211121l0 36.15799c0 0.3768921 -0.14971924 0.73835754 -0.41622925 1.0048676c-0.26651 0.26651 -0.62797546 0.41622925 -1.0048828 0.41622925l0 0l0 0c-0.7848511 0 -1.4211121 -0.6362457 -1.4211121 -1.4210968l0 -36.15799c0 -0.78486633 0.636261 -1.4211121 1.4211121 -1.4211121z" fill-rule="evenodd"/><path fill="#000000" d="m207.75558 266.41882l0 0c0.78486633 0 1.4211121 0.636261 1.4211121 1.4211121l0 36.15799c0 0.3769226 -0.14971924 0.7383728 -0.41622925 1.0048828c-0.26651 0.26651 -0.62797546 0.41622925 -1.0048828 0.41622925l0 0l0 0c-0.7848511 0 -1.4211121 -0.636261 -1.4211121 -1.4211121l0 -36.15799c0 -0.7848511 0.636261 -1.4211121 1.4211121 -1.4211121z" fill-rule="evenodd"/><path fill="#000000" d="m128.50407 198.99475l0 0c0 -0.7827759 0.634552 -1.4173279 1.4173279 -1.4173279l96.53543 0c0.37590027 0 0.73638916 0.14932251 1.0021973 0.41511536c0.26579285 0.2658081 0.41513062 0.62631226 0.41513062 1.0022125l0 0l0 0c0 0.7827606 -0.63456726 1.4173126 -1.4173279 1.4173126l-96.53543 0c-0.7827759 0 -1.4173279 -0.634552 -1.4173279 -1.4173126z" fill-rule="evenodd"/><path fill="#000000" d="m260.54575 199.00832l0 0c0 -0.7827606 0.6345825 -1.4173126 1.4173279 -1.4173126l36.251984 0c0.375885 0 0.73638916 0.14932251 1.0021973 0.41511536c0.2657776 0.2658081 0.41513062 0.626297 0.41513062 1.0021973l0 0l0 0c0 0.7827759 -0.6345825 1.4173279 -1.4173279 1.4173279l-36.251984 0c-0.78274536 0 -1.4173279 -0.634552 -1.4173279 -1.4173279z" fill-rule="evenodd"/><path fill="#bab7b3" d="m385.73752 282.53806l130.23624 0l0 23.086609l-130.23624 0z" fill-rule="evenodd"/><path fill="#000000" d="m385.58316 304.6409l0 0c0.13916016 0 0.25198364 -0.11279297 0.25198364 -0.25195312l0 -21.88977c0 -0.066833496 -0.026550293 -0.13092041 -0.073791504 -0.17816162c-0.04727173 -0.04727173 -0.11135864 -0.073791504 -0.17819214 -0.073791504l0 0l0 0c-0.13916016 0 -0.25195312 0.11279297 -0.25195312 0.25195312l0 21.88977c0 0.13916016 0.11279297 0.25195312 0.25195312 0.25195312z" fill-rule="evenodd"/><path fill="#000000" d="m385.35434 282.56876l0 0c0 -0.13916016 0.11279297 -0.25198364 0.25195312 -0.25198364l130.36221 0c0.066833496 0 0.13092041 0.026550293 0.17816162 0.073791504c0.04724121 0.04727173 0.073791504 0.11135864 0.073791504 0.17819214l0 0l0 0c0 0.13916016 -0.11279297 0.25195312 -0.25195312 0.25195312l-130.36221 0c-0.13916016 0 -0.25195312 -0.11279297 -0.25195312 -0.25195312z" fill-rule="evenodd"/><path fill="#000000" d="m391.47864 304.6409l0 0c0.13916016 0 0.25198364 -0.11279297 0.25198364 -0.25195312l0 -21.88977c0 -0.066833496 -0.026550293 -0.13092041 -0.07382202 -0.17816162c-0.04724121 -0.04727173 -0.111328125 -0.073791504 -0.17816162 -0.073791504l0 0l0 0c-0.13916016 0 -0.25195312 0.11279297 -0.25195312 0.25195312l0 21.88977c0 0.13916016 0.11279297 0.25195312 0.25195312 0.25195312z" fill-rule="evenodd"/><path fill="#000000" d="m397.20816 304.6409l0 0c0.13916016 0 0.25198364 -0.11279297 0.25198364 -0.25195312l0 -21.88977c0 -0.066833496 -0.026550293 -0.13092041 -0.073791504 -0.17816162c-0.04727173 -0.04727173 -0.11135864 -0.073791504 -0.17819214 -0.073791504l0 0l0 0c-0.13916016 0 -0.25195312 0.11279297 -0.25195312 0.25195312l0 21.88977c0 0.13916016 0.11279297 0.25195312 0.25195312 0.25195312z" fill-rule="evenodd"/><path fill="#000000" d="m403.10364 304.6409l0 0c0.13916016 0 0.25198364 -0.11279297 0.25198364 -0.25195312l0 -21.88977c0 -0.066833496 -0.026550293 -0.13092041 -0.07382202 -0.17816162c-0.04724121 -0.04727173 -0.111328125 -0.073791504 -0.17816162 -0.073791504l0 0l0 0c-0.13916016 0 -0.25195312 0.11279297 -0.25195312 0.25195312l0 21.88977c0 0.13916016 0.11279297 0.25195312 0.25195312 0.25195312z" fill-rule="evenodd"/><path fill="#000000" d="m408.70816 304.6409l0 0c0.13916016 0 0.25198364 -0.11279297 0.25198364 -0.25195312l0 -21.88977c0 -0.066833496 -0.026550293 -0.13092041 -0.073791504 -0.17816162c-0.04727173 -0.04727173 -0.11135864 -0.073791504 -0.17819214 -0.073791504l0 0l0 0c-0.13916016 0 -0.25195312 0.11279297 -0.25195312 0.25195312l0 21.88977c0 0.13916016 0.11279297 0.25195312 0.25195312 0.25195312z" fill-rule="evenodd"/><path fill="#000000" d="m414.60364 304.6409l0 0c0.13916016 0 0.25198364 -0.11279297 0.25198364 -0.25195312l0 -21.88977c0 -0.066833496 -0.026550293 -0.13092041 -0.07382202 -0.17816162c-0.04724121 -0.04727173 -0.111328125 -0.073791504 -0.17816162 -0.073791504l0 0l0 0c-0.13916016 0 -0.25195312 0.11279297 -0.25195312 0.25195312l0 21.88977c0 0.13916016 0.11279297 0.25195312 0.25195312 0.25195312z" fill-rule="evenodd"/><path fill="#000000" d="m420.33316 304.6409l0 0c0.13916016 0 0.25198364 -0.11279297 0.25198364 -0.25195312l0 -21.88977c0 -0.066833496 -0.026550293 -0.13092041 -0.073791504 -0.17816162c-0.04727173 -0.04727173 -0.11135864 -0.073791504 -0.17819214 -0.073791504l0 0l0 0c-0.13916016 0 -0.25195312 0.11279297 -0.25195312 0.25195312l0 21.88977c0 0.13916016 0.11279297 0.25195312 0.25195312 0.25195312z" fill-rule="evenodd"/><path fill="#000000" d="m426.22864 304.6409l0 0c0.13916016 0 0.25198364 -0.11279297 0.25198364 -0.25195312l0 -21.88977c0 -0.066833496 -0.026550293 -0.13092041 -0.07382202 -0.17816162c-0.04724121 -0.04727173 -0.111328125 -0.073791504 -0.17816162 -0.073791504l0 0l0 0c-0.13916016 0 -0.25195312 0.11279297 -0.25195312 0.25195312l0 21.88977c0 0.13916016 0.11279297 0.25195312 0.25195312 0.25195312z" fill-rule="evenodd"/><path fill="#000000" d="m431.83316 304.6409l0 0c0.13916016 0 0.25198364 -0.11279297 0.25198364 -0.25195312l0 -21.88977c0 -0.066833496 -0.026550293 -0.13092041 -0.073791504 -0.17816162c-0.04727173 -0.04727173 -0.11135864 -0.073791504 -0.17819214 -0.073791504l0 0l0 0c-0.13916016 0 -0.25195312 0.11279297 -0.25195312 0.25195312l0 21.88977c0 0.13916016 0.11279297 0.25195312 0.25195312 0.25195312z" fill-rule="evenodd"/><path fill="#000000" d="m437.72864 304.6409l0 0c0.13916016 0 0.25198364 -0.11279297 0.25198364 -0.25195312l0 -21.88977c0 -0.066833496 -0.026550293 -0.13092041 -0.07382202 -0.17816162c-0.04724121 -0.04727173 -0.111328125 -0.073791504 -0.17816162 -0.073791504l0 0l0 0c-0.13916016 0 -0.25195312 0.11279297 -0.25195312 0.25195312l0 21.88977c0 0.13916016 0.11279297 0.25195312 0.25195312 0.25195312z" fill-rule="evenodd"/><path fill="#000000" d="m460.10364 304.6409l0 0c0.13916016 0 0.25198364 -0.11279297 0.25198364 -0.25195312l0 -21.88977c0 -0.066833496 -0.026550293 -0.13092041 -0.07382202 -0.17816162c-0.04724121 -0.04727173 -0.111328125 -0.073791504 -0.17816162 -0.073791504l0 0l0 0c-0.13916016 0 -0.25195312 0.11279297 -0.25195312 0.25195312l0 21.88977c0 0.13916016 0.11279297 0.25195312 0.25195312 0.25195312z" fill-rule="evenodd"/><path fill="#000000" d="m465.97864 304.6409l0 0c0.13916016 0 0.25198364 -0.11279297 0.25198364 -0.25195312l0 -21.88977c0 -0.066833496 -0.026550293 -0.13092041 -0.07382202 -0.17816162c-0.04724121 -0.04727173 -0.111328125 -0.073791504 -0.17816162 -0.073791504l0 0l0 0c-0.13916016 0 -0.25195312 0.11279297 -0.25195312 0.25195312l0 21.88977c0 0.13916016 0.11279297 0.25195312 0.25195312 0.25195312z" fill-rule="evenodd"/><path fill="#000000" d="m471.72864 304.6409l0 0c0.13916016 0 0.25198364 -0.11279297 0.25198364 -0.25195312l0 -21.88977c0 -0.066833496 -0.026550293 -0.13092041 -0.07382202 -0.17816162c-0.04724121 -0.04727173 -0.111328125 -0.073791504 -0.17816162 -0.073791504l0 0l0 0c-0.13916016 0 -0.25195312 0.11279297 -0.25195312 0.25195312l0 21.88977c0 0.13916016 0.11279297 0.25195312 0.25195312 0.25195312z" fill-rule="evenodd"/><path fill="#000000" d="m477.60364 304.6409l0 0c0.13916016 0 0.25198364 -0.11279297 0.25198364 -0.25195312l0 -21.88977c0 -0.066833496 -0.026550293 -0.13092041 -0.07382202 -0.17816162c-0.04724121 -0.04727173 -0.111328125 -0.073791504 -0.17816162 -0.073791504l0 0l0 0c-0.13916016 0 -0.25195312 0.11279297 -0.25195312 0.25195312l0 21.88977c0 0.13916016 0.11279297 0.25195312 0.25195312 0.25195312z" fill-rule="evenodd"/><path fill="#000000" d="m483.35364 304.6409l0 0c0.13916016 0 0.25198364 -0.11279297 0.25198364 -0.25195312l0 -21.88977c0 -0.066833496 -0.026550293 -0.13092041 -0.07382202 -0.17816162c-0.04724121 -0.04727173 -0.111328125 -0.073791504 -0.17816162 -0.073791504l0 0l0 0c-0.13916016 0 -0.25195312 0.11279297 -0.25195312 0.25195312l0 21.88977c0 0.13916016 0.11279297 0.25195312 0.25195312 0.25195312z" fill-rule="evenodd"/><path fill="#000000" d="m489.10364 304.6409l0 0c0.13916016 0 0.25198364 -0.11279297 0.25198364 -0.25195312l0 -21.88977c0 -0.066833496 -0.026550293 -0.13092041 -0.07382202 -0.17816162c-0.04724121 -0.04727173 -0.111328125 -0.073791504 -0.17816162 -0.073791504l0 0l0 0c-0.13916016 0 -0.25195312 0.11279297 -0.25195312 0.25195312l0 21.88977c0 0.13916016 0.11279297 0.25195312 0.25195312 0.25195312z" fill-rule="evenodd"/><path fill="#000000" d="m494.97864 304.6409l0 0c0.13916016 0 0.25198364 -0.11279297 0.25198364 -0.25195312l0 -21.88977c0 -0.066833496 -0.026550293 -0.13092041 -0.07382202 -0.17816162c-0.04724121 -0.04727173 -0.111328125 -0.073791504 -0.17816162 -0.073791504l0 0l0 0c-0.13916016 0 -0.25195312 0.11279297 -0.25195312 0.25195312l0 21.88977c0 0.13916016 0.11279297 0.25195312 0.25195312 0.25195312z" fill-rule="evenodd"/><path fill="#000000" d="m330.46454 199.0129l0 0c0 -0.7848511 0.636261 -1.4210968 1.4211121 -1.4210968l130.59384 0c0.3769226 0 0.7383728 0.14971924 1.0048828 0.41622925c0.26651 0.26651 0.41622925 0.62797546 0.41622925 1.0048676l0 0l0 0c0 0.78486633 -0.63623047 1.4211121 -1.4211121 1.4211121l-130.59384 0c-0.7848511 0 -1.4211121 -0.6362457 -1.4211121 -1.4211121z" fill-rule="evenodd"/><path fill="#000000" d="m482.08136 198.99849l0 0c0 -0.78486633 0.63623047 -1.4211121 1.4211121 -1.4211121l33.612335 0c0.3768921 0 0.7383423 0.14971924 1.0048828 0.41622925c0.2664795 0.26651 0.41619873 0.62797546 0.41619873 1.0048828l0 0l0 0c0 0.7848511 -0.63623047 1.4210968 -1.4210815 1.4210968l-33.612335 0c-0.7848816 0 -1.4211121 -0.6362457 -1.4211121 -1.4210968z" fill-rule="evenodd"/><path fill="#000000" d="m161.00525 304.7349l0 0c0 -0.78274536 0.634552 -1.4172974 1.4173126 -1.4172974l332.28345 0c0.37591553 0 0.7364197 0.14932251 1.0021973 0.4151001c0.2658081 0.2658081 0.41513062 0.62631226 0.41513062 1.0021973l0 0l0 0c0 0.7827759 -0.634552 1.4173279 -1.4173279 1.4173279l-332.28345 0l0 0c-0.7827606 0 -1.4173126 -0.634552 -1.4173126 -1.4173279z" fill-rule="evenodd"/><path fill="#000000" d="m130.17586 303.37683l0 0c0.7827606 0 1.4173126 0.634552 1.4173126 1.4173279l0 197.66928c0 0.37591553 -0.14932251 0.73638916 -0.41511536 1.0021973c-0.2658081 0.2658081 -0.626297 0.41513062 -1.0021973 0.41513062l0 0l0 0c-0.7827759 0 -1.4173279 -0.634552 -1.4173279 -1.4173279l0 -197.66928c0 -0.7827759 0.634552 -1.4173279 1.4173279 -1.4173279z" fill-rule="evenodd"/><path fill="#000000" d="m128.79707 304.73938l0 0c0 -0.7848511 0.636261 -1.4211121 1.4211121 -1.4211121l3.237671 0l0 0c0.3768921 0 0.73835754 0.14971924 1.0048676 0.41622925c0.26651 0.26651 0.41622925 0.6279907 0.41622925 1.0048828l0 0l0 0c0 0.7848511 -0.6362457 1.4211121 -1.4210968 1.4211121l-3.237671 0c-0.7848511 0 -1.4211121 -0.636261 -1.4211121 -1.4211121z" fill-rule="evenodd"/><path fill="#000000" d="m130.17326 0.10071811l0 0c0.78486633 0 1.4211121 0.63625276 1.4211121 1.4211102l0 197.44781c0 0.37690735 -0.14971924 0.7383728 -0.41622925 1.0048828c-0.26651 0.26649475 -0.62797546 0.41622925 -1.0048828 0.41622925l0 0l0 0c-0.7848511 0 -1.4211121 -0.636261 -1.4211121 -1.4211121l0 -197.44781c0 -0.78485745 0.636261 -1.4211102 1.4211121 -1.4211102z" fill-rule="evenodd"/><path fill="#000000" d="m128.7979 1.4173229l0 0c0 -0.7827658 0.634552 -1.4173229 1.4173279 -1.4173229l386.96063 0c0.37591553 0 0.73638916 0.14932466 1.0021973 0.41512424c0.2658081 0.26579958 0.41516113 0.6263012 0.41516113 1.0021987l0 0l0 0c0 0.78276587 -0.6345825 1.4173229 -1.4173584 1.4173229l-386.96063 0c-0.7827759 0 -1.4173279 -0.634557 -1.4173279 -1.4173229z" fill-rule="evenodd"/><path fill="#000000" d="m422.62952 0.07188399l0 0c0.7848511 0 1.4211121 0.63625276 1.4211121 1.4211102l0 197.44781c0 0.37690735 -0.14971924 0.7383728 -0.41622925 1.0048828c-0.26651 0.26651 -0.6279907 0.41622925 -1.0048828 0.41622925l0 0l0 0c-0.7848511 0 -1.4211121 -0.6362457 -1.4211121 -1.4211121l0 -197.44781c0 -0.78485745 0.636261 -1.4211102 1.4211121 -1.4211102z" fill-rule="evenodd"/><path fill="#000000" d="m517.27295 1.0022603l0 0c0.7219238 0 1.3071289 0.5852027 1.3071289 1.3070866l0 302.83463c0 0.3466797 -0.13775635 0.6791382 -0.38287354 0.9242554c-0.24511719 0.24511719 -0.5775757 0.38284302 -0.9242554 0.38284302l0 0l0 0c-0.7218628 0 -1.3070679 -0.5852051 -1.3070679 -1.3070984l0 -302.83463c0 -0.7218839 0.5852051 -1.3070866 1.3070679 -1.3070866z" fill-rule="evenodd"/><path fill="#000000" fill-opacity="0.0" d="m-0.002624672 504.70602l960.0 0l0 42.015778l-960.0 0z" fill-rule="evenodd"/><path fill="#000000" d="m456.2038 531.61456q-1.125 0 -1.875 -0.46875q-0.734375 -0.484375 -1.125 -1.328125q-0.375 -0.859375 -0.4375 -1.96875l1.59375 -0.4375q0.046875 0.6875 0.21875 1.328125q0.171875 0.640625 0.546875 1.046875q0.390625 0.40625 1.078125 0.40625q0.703125 0 1.0625 -0.390625q0.359375 -0.390625 0.359375 -1.125q0 -0.890625 -0.40625 -1.421875q-0.390625 -0.53125 -1.0 -1.078125l-2.171875 -1.921875q-0.640625 -0.5625 -0.953125 -1.21875q-0.296875 -0.671875 -0.296875 -1.640625q0 -1.421875 0.8125 -2.203125q0.8125 -0.796875 2.234375 -0.796875q0.765625 0 1.34375 0.203125q0.578125 0.203125 0.96875 0.625q0.40625 0.40625 0.625 1.046875q0.234375 0.625 0.3125 1.46875l-1.53125 0.421875q-0.046875 -0.640625 -0.1875 -1.171875q-0.140625 -0.546875 -0.5 -0.875q-0.359375 -0.328125 -1.03125 -0.328125q-0.671875 0 -1.0625 0.375q-0.375 0.359375 -0.375 1.0625q0 0.59375 0.203125 0.984375q0.203125 0.375 0.65625 0.765625l2.1875 1.921875q0.734375 0.640625 1.296875 1.53125q0.5625 0.890625 0.5625 2.109375q0 0.953125 -0.40625 1.65625q-0.390625 0.6875 -1.09375 1.0625q-0.703125 0.359375 -1.609375 0.359375zm7.864868 0q-1.421875 0 -2.171875 -0.546875q-0.75 -0.5625 -1.03125 -1.578125q-0.265625 -1.03125 -0.265625 -2.390625l0 -8.578125l1.734375 0l0 8.671875q0 0.828125 0.109375 1.515625q0.109375 0.6875 0.484375 1.09375q0.375 0.390625 1.140625 0.390625q0.765625 0 1.125 -0.390625q0.375 -0.40625 0.484375 -1.09375q0.109375 -0.6875 0.109375 -1.515625l0 -8.671875l1.71875 0l0 8.578125q0 1.359375 -0.28125 2.390625q-0.265625 1.015625 -1.015625 1.578125q-0.734375 0.546875 -2.140625 0.546875zm5.3442993 -0.140625l0 -12.953125l2.96875 0q0.875 0 1.515625 0.1875q0.65625 0.1875 1.09375 0.59375q0.4375 0.390625 0.640625 1.015625q0.203125 0.609375 0.203125 1.4375q0 0.8125 -0.203125 1.390625q-0.1875 0.578125 -0.609375 0.921875q-0.40625 0.328125 -1.046875 0.4375q0.796875 0.171875 1.265625 0.59375q0.484375 0.421875 0.71875 1.09375q0.234375 0.65625 0.234375 1.578125q0 0.84375 -0.203125 1.53125q-0.1875 0.6875 -0.59375 1.171875q-0.40625 0.46875 -1.046875 0.734375q-0.625 0.265625 -1.484375 0.265625l-3.453125 0zm1.796875 -1.296875l1.21875 0q1.21875 0 1.625 -0.5625q0.40625 -0.578125 0.40625 -1.84375q0 -0.8125 -0.21875 -1.359375q-0.21875 -0.546875 -0.6875 -0.828125q-0.46875 -0.28125 -1.265625 -0.28125l-1.078125 0l0 4.875zm0 -6.25l1.078125 0q0.765625 0 1.1875 -0.21875q0.4375 -0.21875 0.609375 -0.6875q0.1875 -0.484375 0.1875 -1.265625q0 -0.890625 -0.28125 -1.28125q-0.265625 -0.40625 -0.84375 -0.5q-0.578125 -0.109375 -1.5 -0.109375l-0.4375 0l0 4.0625zm9.634003 7.6875q-1.125 0 -1.875 -0.46875q-0.734375 -0.484375 -1.125 -1.328125q-0.375 -0.859375 -0.4375 -1.96875l1.59375 -0.4375q0.046875 0.6875 0.21875 1.328125q0.171875 0.640625 0.546875 1.046875q0.390625 0.40625 1.078125 0.40625q0.703125 0 1.0625 -0.390625q0.359375 -0.390625 0.359375 -1.125q0 -0.890625 -0.40625 -1.421875q-0.390625 -0.53125 -1.0 -1.078125l-2.171875 -1.921875q-0.640625 -0.5625 -0.953125 -1.21875q-0.296875 -0.671875 -0.296875 -1.640625q0 -1.421875 0.8125 -2.203125q0.8125 -0.796875 2.234375 -0.796875q0.765625 0 1.34375 0.203125q0.578125 0.203125 0.96875 0.625q0.40625 0.40625 0.625 1.046875q0.234375 0.625 0.3125 1.46875l-1.53125 0.421875q-0.046875 -0.640625 -0.1875 -1.171875q-0.140625 -0.546875 -0.5 -0.875q-0.359375 -0.328125 -1.03125 -0.328125q-0.671875 0 -1.0625 0.375q-0.375 0.359375 -0.375 1.0625q0 0.59375 0.203125 0.984375q0.203125 0.375 0.65625 0.765625l2.1875 1.921875q0.734375 0.640625 1.296875 1.53125q0.5625 0.890625 0.5625 2.109375q0 0.953125 -0.40625 1.65625q-0.390625 0.6875 -1.09375 1.0625q-0.703125 0.359375 -1.609375 0.359375zm7.8180237 0q-1.296875 0 -2.09375 -0.5q-0.78125 -0.515625 -1.125 -1.46875q-0.328125 -0.953125 -0.328125 -2.234375l0 -4.90625q0 -1.28125 0.34375 -2.203125q0.34375 -0.921875 1.125 -1.40625q0.78125 -0.5 2.078125 -0.5q1.3125 0 2.078125 0.5q0.78125 0.5 1.125 1.421875q0.34375 0.90625 0.34375 2.1875l0 4.921875q0 1.265625 -0.34375 2.21875q-0.34375 0.9375 -1.125 1.453125q-0.765625 0.515625 -2.078125 0.515625zm0 -1.421875q0.734375 0 1.09375 -0.296875q0.375 -0.296875 0.5 -0.828125q0.125 -0.53125 0.125 -1.25l0 -5.6875q0 -0.71875 -0.125 -1.234375q-0.125 -0.53125 -0.5 -0.796875q-0.359375 -0.28125 -1.09375 -0.28125q-0.71875 0 -1.09375 0.28125q-0.375 0.265625 -0.5 0.796875q-0.125 0.515625 -0.125 1.234375l0 5.6875q0 0.71875 0.125 1.25q0.125 0.53125 0.5 0.828125q0.375 0.296875 1.09375 0.296875zm5.3271484 1.28125l0 -12.953125l1.796875 0l0 11.65625l3.3125 0l0 1.296875l-5.109375 0zm9.552887 0.140625q-1.296875 0 -2.09375 -0.5q-0.78125 -0.515625 -1.125 -1.46875q-0.328125 -0.953125 -0.328125 -2.234375l0 -4.90625q0 -1.28125 0.34375 -2.203125q0.34375 -0.921875 1.125 -1.40625q0.78125 -0.5 2.078125 -0.5q1.3125 0 2.078125 0.5q0.78125 0.5 1.125 1.421875q0.34375 0.90625 0.34375 2.1875l0 4.921875q0 1.265625 -0.34375 2.21875q-0.34375 0.9375 -1.125 1.453125q-0.765625 0.515625 -2.078125 0.515625zm0 -1.421875q0.734375 0 1.09375 -0.296875q0.375 -0.296875 0.5 -0.828125q0.125 -0.53125 0.125 -1.25l0 -5.6875q0 -0.71875 -0.125 -1.234375q-0.125 -0.53125 -0.5 -0.796875q-0.359375 -0.28125 -1.09375 -0.28125q-0.71875 0 -1.09375 0.28125q-0.375 0.265625 -0.5 0.796875q-0.125 0.515625 -0.125 1.234375l0 5.6875q0 0.71875 0.125 1.25q0.125 0.53125 0.5 0.828125q0.375 0.296875 1.09375 0.296875z" fill-rule="nonzero"/><path fill="#000000" d="m128.47769 503.55905l0 0c0 -0.7218933 0.5852051 -1.3070679 1.3070831 -1.3070679l311.24408 0c0.34664917 0 0.6791382 0.13769531 0.9242554 0.3828125c0.24511719 0.2451477 0.38284302 0.5776062 0.38284302 0.9242554l0 0l0 0c0 0.7218933 -0.5852051 1.3070984 -1.3070984 1.3070984l-311.24408 0l0 0c-0.72187805 0 -1.3070831 -0.5852051 -1.3070831 -1.3070984z" fill-rule="evenodd"/><path fill="#6e6967" d="m306.74014 380.9876c0 3.6047974 -0.94158936 7.155792 -2.7440186 10.276337c-1.8293457 3.120575 -4.4119873 5.703125 -7.5326233 7.505493c-3.1206665 1.8023987 -6.671753 2.770874 -10.276672 2.770874c-3.604889 0 -7.1559753 -0.96847534 -10.276642 -2.770874c-3.1206665 -1.8023682 -5.7301636 -4.384918 -7.5326233 -7.505493c-1.8024597 -3.1205444 -2.7440186 -6.6715393 -2.7440186 -10.276337c0 -3.6047668 0.94155884 -7.1557617 2.7440186 -10.276337c1.8024597 -3.1205444 4.411957 -5.7299805 7.5326233 -7.532379c3.1206665 -1.8023987 6.671753 -2.7439575 10.276642 -2.7439575c3.6049194 0 7.156006 0.94155884 10.276672 2.7439575c3.120636 1.8023987 5.7032776 4.4118347 7.5326233 7.532379c1.8024292 3.120575 2.7440186 6.67157 2.7440186 10.276337" fill-rule="evenodd"/><path fill="#ffffff" d="m289.54965 389.24634c-0.91467285 0.45733643 -2.7171326 0.91467285 -5.057617 0.91467285c-5.4073486 0 -9.4696045 -3.416504 -9.4696045 -9.711426c0 -5.9990234 4.062256 -10.061127 10.00766 -10.061127c2.394287 0 3.9008179 0.5111389 4.5464783 0.83395386l-0.5918579 2.0444946c-0.94158936 -0.4573059 -2.2866821 -0.80703735 -3.873932 -0.80703735c-4.492676 0 -7.478821 2.8784485 -7.478821 7.909027c0 4.707733 2.690216 7.720703 7.371216 7.720703c1.5065308 0 3.0399475 -0.32281494 4.0353394 -0.8070679l0.5111389 1.9638062" fill-rule="evenodd"/><path fill="#ffffff" d="m292.67038 370.6844l2.475006 0l0 19.180695l-2.475006 0l0 -19.180695" fill-rule="evenodd"/><path fill="#000000" fill-opacity="0.0" d="m245.21033 406.89386l80.8819 0l0 13.952759l-80.8819 0z" fill-rule="evenodd"/><path fill="#000000" d="m246.12929 417.66507l2.140625 -10.09375l1.359375 0l2.15625 10.09375l-1.328125 0l-0.46875 -2.546875l-2.046875 0l-0.484375 2.546875l-1.328125 0zm2.0 -3.546875l1.671875 0l-0.84375 -4.546875l-0.828125 4.546875zm4.6737976 3.546875l0 -10.09375l1.40625 0l0 9.078125l2.5781403 0l0 1.015625l-3.9843903 0zm4.9282684 0l0.1875 -10.09375l1.375 0l1.78125 8.1875l1.796875 -8.1875l1.359375 0l0.1875 10.09375l-1.125 0l-0.109375 -7.328125l-1.703125 7.328125l-0.796875 0l-1.703125 -7.328125l-0.109375 7.328125l-1.140625 0zm10.812775 0.109375q-1.015625 0 -1.625 -0.390625q-0.609375 -0.40625 -0.875 -1.140625q-0.265625 -0.75 -0.265625 -1.734375l0 -3.828125q0 -1.0 0.265625 -1.71875q0.28125 -0.71875 0.875 -1.09375q0.609375 -0.375 1.625 -0.375q1.03125 0 1.625 0.390625q0.59375 0.375 0.859375 1.09375q0.265625 0.703125 0.265625 1.703125l0 3.828125q0 0.984375 -0.265625 1.71875q-0.265625 0.734375 -0.859375 1.140625q-0.59375 0.40625 -1.625 0.40625zm0 -1.109375q0.5625 0 0.84375 -0.21875q0.296875 -0.234375 0.390625 -0.65625q0.09375 -0.421875 0.09375 -0.984375l0 -4.40625q0 -0.5625 -0.09375 -0.96875q-0.09375 -0.40625 -0.390625 -0.625q-0.28125 -0.21875 -0.84375 -0.21875q-0.5625 0 -0.859375 0.21875q-0.28125 0.21875 -0.390625 0.625q-0.09375 0.40625 -0.09375 0.96875l0 4.40625q0 0.5625 0.09375 0.984375q0.109375 0.421875 0.390625 0.65625q0.296875 0.21875 0.859375 0.21875zm3.5090942 1.0l2.109375 -5.28125l-2.0625 -4.8125l1.296875 0l1.53125 3.5625l1.40625 -3.5625l1.296875 0l-2.109375 4.921875l2.21875 5.171875l-1.3125 0l-1.640625 -3.796875l-1.421875 3.796875l-1.3125 0zm6.0805054 0l2.140625 -10.09375l1.359375 0l2.15625 10.09375l-1.328125 0l-0.46875 -2.546875l-2.046875 0l-0.484375 2.546875l-1.328125 0zm2.0 -3.546875l1.671875 0l-0.84375 -4.546875l-0.828125 4.546875zm4.6737976 3.546875l0 -10.09375l2.03125 0q1.015625 0 1.671875 0.28125q0.65625 0.265625 0.96875 0.859375q0.328125 0.578125 0.328125 1.546875q0 0.578125 -0.125 1.0625q-0.125 0.484375 -0.40625 0.8125q-0.265625 0.328125 -0.71875 0.46875l1.4375 5.0625l-1.359375 0l-1.328125 -4.734375l-1.09375 0l0 4.734375l-1.40625 0zm1.40625 -5.734375l0.546875 0q0.59375 0 0.96875 -0.15625q0.375 -0.15625 0.546875 -0.515625q0.171875 -0.359375 0.171875 -1.0q0 -0.890625 -0.328125 -1.28125q-0.328125 -0.390625 -1.28125 -0.390625l-0.625 0l0 3.34375zm5.13501 5.734375l0 -10.09375l1.375 0l0 10.09375l-1.375 0zm3.010254 0l0 -10.09375l3.90625 0l0 1.015625l-2.5 0l0 3.359375l1.9375 0l0 1.0l-1.9375 0l0 4.71875l-1.40625 0zm4.09787 0l2.140625 -10.09375l1.359375 0l2.15625 10.09375l-1.328125 0l-0.46875 -2.546875l-2.046875 0l-0.484375 2.546875l-1.328125 0zm2.0 -3.546875l1.671875 0l-0.84375 -4.546875l-0.828125 4.546875zm4.6737976 3.546875l0 -10.09375l2.1875 0q1.125 0 1.78125 0.34375q0.65625 0.34375 0.9375 1.03125q0.28125 0.6875 0.28125 1.703125l0 3.71875q0 1.0625 -0.28125 1.796875q-0.28125 0.734375 -0.921875 1.125q-0.625 0.375 -1.671875 0.375l-2.3125 0zm1.40625 -1.015625l0.796875 0q0.78125 0 1.09375 -0.296875q0.328125 -0.296875 0.390625 -0.859375q0.078125 -0.578125 0.078125 -1.390625l0 -3.28125q0 -0.78125 -0.109375 -1.265625q-0.09375 -0.484375 -0.4375 -0.703125q-0.328125 -0.234375 -1.046875 -0.234375l-0.765625 0l0 8.03125zm7.7346497 1.125q-1.015625 0 -1.625 -0.390625q-0.609375 -0.40625 -0.875 -1.140625q-0.265625 -0.75 -0.265625 -1.734375l0 -3.828125q0 -1.0 0.265625 -1.71875q0.28125 -0.71875 0.875 -1.09375q0.609375 -0.375 1.625 -0.375q1.03125 0 1.625 0.390625q0.59375 0.375 0.859375 1.09375q0.265625 0.703125 0.265625 1.703125l0 3.828125q0 0.984375 -0.265625 1.71875q-0.265625 0.734375 -0.859375 1.140625q-0.59375 0.40625 -1.625 0.40625zm0 -1.109375q0.5625 0 0.84375 -0.21875q0.296875 -0.234375 0.390625 -0.65625q0.09375 -0.421875 0.09375 -0.984375l0 -4.40625q0 -0.5625 -0.09375 -0.96875q-0.09375 -0.40625 -0.390625 -0.625q-0.28125 -0.21875 -0.84375 -0.21875q-0.5625 0 -0.859375 0.21875q-0.28125 0.21875 -0.390625 0.625q-0.09375 0.40625 -0.09375 0.96875l0 4.40625q0 0.5625 0.09375 0.984375q0.109375 0.421875 0.390625 0.65625q0.296875 0.21875 0.859375 0.21875zm8.32959 1.0l0 -8.34375q-0.015625 0.015625 -0.28125 0.078125q-0.265625 0.0625 -0.609375 0.125q-0.328125 0.0625 -0.59375 0.109375q-0.25 0.046875 -0.265625 0.046875l0 -1.0q0.203125 -0.0625 0.484375 -0.140625q0.28125 -0.09375 0.578125 -0.21875q0.296875 -0.125 0.5625 -0.3125q0.265625 -0.1875 0.453125 -0.4375l1.015625 0l0 10.09375l-1.34375 0z" fill-rule="nonzero"/><path fill="#000000" fill-opacity="0.0" d="m262.7085 417.4772l50.92914 0l0 29.165375l-50.92914 0z" fill-rule="evenodd"/><path fill="#6e6967" d="m268.73975 440.51196q-1.65625 0 -2.765625 -0.71875q-1.109375 -0.71875 -1.6875 -1.96875q-0.5625 -1.265625 -0.65625 -2.921875l2.375 -0.640625q0.078125 1.015625 0.328125 1.96875q0.25 0.953125 0.8125 1.5625q0.578125 0.59375 1.59375 0.59375q1.046875 0 1.578125 -0.578125q0.546875 -0.578125 0.546875 -1.671875q0 -1.3125 -0.59375 -2.109375q-0.59375 -0.796875 -1.5 -1.59375l-3.234375 -2.859375q-0.953125 -0.828125 -1.40625 -1.8125q-0.453125 -0.984375 -0.453125 -2.4375q0 -2.125 1.21875 -3.28125q1.21875 -1.171875 3.296875 -1.171875q1.140625 0 2.0 0.296875q0.875 0.296875 1.453125 0.921875q0.59375 0.609375 0.9375 1.5625q0.34375 0.9375 0.46875 2.1875l-2.28125 0.625q-0.078125 -0.953125 -0.296875 -1.75q-0.203125 -0.796875 -0.75 -1.28125q-0.53125 -0.484375 -1.53125 -0.484375q-1.0 0 -1.5625 0.53125q-0.546875 0.53125 -0.546875 1.578125q0 0.875 0.296875 1.453125q0.296875 0.5625 0.96875 1.15625l3.25 2.859375q1.09375 0.953125 1.921875 2.28125q0.828125 1.3125 0.828125 3.109375q0 1.421875 -0.59375 2.46875q-0.59375 1.03125 -1.625 1.578125q-1.03125 0.546875 -2.390625 0.546875zm6.7098694 -0.21875l0 -19.25l4.421875 0q1.296875 0 2.265625 0.28125q0.96875 0.28125 1.609375 0.890625q0.640625 0.59375 0.9375 1.515625q0.3125 0.90625 0.3125 2.140625q0 1.1875 -0.296875 2.0625q-0.296875 0.859375 -0.90625 1.359375q-0.59375 0.5 -1.546875 0.640625q1.15625 0.265625 1.875 0.890625q0.71875 0.625 1.0625 1.609375q0.34375 0.984375 0.34375 2.375q0 1.234375 -0.296875 2.265625q-0.28125 1.015625 -0.890625 1.734375q-0.59375 0.703125 -1.546875 1.09375q-0.9375 0.390625 -2.21875 0.390625l-5.125 0zm2.6875 -1.921875l1.796875 0q1.8125 0 2.40625 -0.84375q0.609375 -0.84375 0.609375 -2.71875q0 -1.21875 -0.328125 -2.03125q-0.3125 -0.828125 -1.015625 -1.234375q-0.6875 -0.421875 -1.875 -0.421875l-1.59375 0l0 7.25zm0 -9.296875l1.59375 0q1.140625 0 1.78125 -0.3125q0.640625 -0.328125 0.890625 -1.03125q0.265625 -0.71875 0.265625 -1.859375q0 -1.328125 -0.40625 -1.921875q-0.40625 -0.59375 -1.265625 -0.75q-0.84375 -0.15625 -2.21875 -0.15625l-0.640625 0l0 6.03125zm14.4219055 11.4375q-1.640625 0 -2.703125 -0.734375q-1.046875 -0.75 -1.5625 -2.03125q-0.515625 -1.28125 -0.515625 -2.921875l0 -8.296875q0 -1.6875 0.5 -2.953125q0.5 -1.265625 1.546875 -1.984375q1.0625 -0.71875 2.734375 -0.71875q1.65625 0 2.703125 0.71875q1.046875 0.71875 1.546875 1.984375q0.5 1.265625 0.5 2.953125l0 8.296875q0 1.671875 -0.515625 2.953125q-0.5 1.28125 -1.546875 2.015625q-1.046875 0.71875 -2.6875 0.71875zm0 -2.09375q0.90625 0 1.359375 -0.515625q0.46875 -0.53125 0.640625 -1.34375q0.1875 -0.828125 0.1875 -1.703125l0 -8.34375q0 -0.921875 -0.171875 -1.734375q-0.15625 -0.828125 -0.625 -1.328125q-0.46875 -0.5 -1.390625 -0.5q-0.921875 0 -1.40625 0.5q-0.46875 0.5 -0.640625 1.328125q-0.171875 0.8125 -0.171875 1.734375l0 8.34375q0 0.875 0.171875 1.703125q0.1875 0.8125 0.671875 1.34375q0.5 0.515625 1.375 0.515625zm12.661804 1.875l0 -5.15625l-5.578125 0l0 -2.65625l5.015625 -11.4375l2.984375 0l0 11.828125l2.171875 0l0 2.265625l-2.171875 0l0 5.15625l-2.421875 0zm-3.125 -7.421875l3.125 0l0 -8.734375l-3.125 8.734375z" fill-rule="nonzero"/><path fill="#000000" d="m441.01575 303.12363l0 0c0.7218933 0 1.3070984 0.5852051 1.3070984 1.3070984l0 199.1181c0 0.34664917 -0.13772583 0.67910767 -0.38284302 0.9242554c-0.24511719 0.24511719 -0.5776062 0.3828125 -0.9242554 0.3828125l0 0l0 0c-0.7218933 0 -1.3070984 -0.5852051 -1.3070984 -1.3070679l0 -199.1181c0 -0.7218933 0.5852051 -1.3070984 1.3070984 -1.3070984z" fill-rule="evenodd"/></g></svg>