<svg
    viewBox="395.762 96.997 39.487 39.455"
    xmlns="http://www.w3.org/2000/svg"
    height="200"
    width="200"
>
    <path
        fill="#503594"
        d="M 435.249 116.712 C 435.249 120.2 434.345 123.585 432.613 126.582 C 430.882 129.579 428.375 132.085 425.377 133.817 C 422.38 135.548 418.968 136.452 415.506 136.452 C 412.043 136.452 408.631 135.548 405.634 133.817 C 402.636 132.085 400.155 129.579 398.423 126.582 C 396.692 123.585 395.762 120.2 395.762 116.712 C 395.762 113.249 396.692 109.865 398.423 106.842 C 400.155 103.844 402.636 101.364 405.634 99.633 C 408.631 97.902 412.043 96.997 415.506 96.997 C 418.968 96.997 422.38 97.902 425.377 99.633 C 428.375 101.364 430.882 103.844 432.613 106.842 C 434.345 109.865 435.249 113.249 435.249 116.712"
        fillRule="evenodd"
    />
    <path
        fill="#ffffff"
        d="M 405.06 106.325 C 405.06 106.124 405.223 105.96 405.425 105.96 L 425.325 105.96 C 425.422 105.96 425.515 105.999 425.583 106.067 C 425.652 106.135 425.69 106.228 425.69 106.325 L 425.69 115.611 C 425.69 115.813 425.527 115.976 425.325 115.976 L 405.425 115.976 C 405.223 115.976 405.06 115.813 405.06 115.611 L 405.06 106.325 Z"
        fillRule="evenodd"
    />
    <path
        fill="#503594"
        d="M 408.762 117.563 C 408.762 116.705 409.458 116.009 410.316 116.009 L 413.255 116.009 C 413.668 116.009 414.063 116.173 414.354 116.464 C 414.646 116.756 414.809 117.151 414.809 117.563 L 414.809 122.14 C 414.809 122.999 414.114 123.694 413.255 123.694 L 410.316 123.694 C 409.458 123.694 408.762 122.999 408.762 122.14 L 408.762 117.563 Z"
        fillRule="evenodd"
    />
    <path
        fill="#503594"
        d="M 409.455 115.074 C 409.455 113.735 410.541 112.649 411.88 112.649 C 412.524 112.649 413.14 112.905 413.595 113.36 C 414.05 113.814 414.305 114.431 414.305 115.074 L 414.305 115.169 C 414.305 116.508 413.22 117.594 411.88 117.594 C 410.541 117.594 409.455 116.508 409.455 115.169 L 409.455 115.074 Z"
        fillRule="evenodd"
    />
    <path
        fill="#ffffff"
        d="M 410.296 115.096 C 410.296 114.27 410.966 113.6 411.792 113.6 C 412.189 113.6 412.57 113.758 412.85 114.039 C 413.131 114.319 413.288 114.7 413.288 115.096 L 413.288 115.159 C 413.288 115.986 412.619 116.655 411.792 116.655 C 410.966 116.655 410.296 115.986 410.296 115.159 L 410.296 115.096 Z"
        fillRule="evenodd"
    />
    <path
        fill="#ffffff"
        d="M 409.66 118.179 C 409.66 117.549 410.171 117.038 410.801 117.038 L 412.96 117.038 C 413.262 117.038 413.552 117.158 413.767 117.372 C 413.981 117.586 414.101 117.877 414.101 118.179 L 414.101 121.535 C 414.101 122.165 413.59 122.676 412.96 122.676 L 410.801 122.676 C 410.171 122.676 409.66 122.165 409.66 121.535 L 409.66 118.179 Z"
        fillRule="evenodd"
    />
    <path
        fill="#503594"
        d="M 416.116 117.563 C 416.116 116.705 416.811 116.009 417.67 116.009 L 420.609 116.009 C 421.021 116.009 421.416 116.173 421.708 116.464 C 421.999 116.756 422.163 117.151 422.163 117.563 L 422.163 122.14 C 422.163 122.999 421.467 123.694 420.609 123.694 L 417.67 123.694 C 416.811 123.694 416.116 122.999 416.116 122.14 L 416.116 117.563 Z"
        fillRule="evenodd"
    />
    <path
        fill="#503594"
        d="M 416.809 115.074 C 416.809 113.735 417.894 112.649 419.234 112.649 C 419.877 112.649 420.494 112.905 420.949 113.36 C 421.403 113.814 421.659 114.431 421.659 115.074 L 421.659 115.169 C 421.659 116.508 420.573 117.594 419.234 117.594 C 417.894 117.594 416.809 116.508 416.809 115.169 L 416.809 115.074 Z"
        fillRule="evenodd"
    />
    <path
        fill="#ffffff"
        d="M 417.65 115.096 C 417.65 114.27 418.32 113.6 419.146 113.6 C 419.543 113.6 419.923 113.758 420.204 114.039 C 420.484 114.319 420.642 114.7 420.642 115.096 L 420.642 115.159 C 420.642 115.986 419.972 116.655 419.146 116.655 C 418.32 116.655 417.65 115.986 417.65 115.159 L 417.65 115.096 Z"
        fillRule="evenodd"
    />
    <path
        fill="#ffffff"
        d="M 417.013 118.179 C 417.013 117.549 417.524 117.038 418.155 117.038 L 420.313 117.038 C 420.616 117.038 420.906 117.158 421.12 117.372 C 421.334 117.586 421.454 117.877 421.454 118.179 L 421.454 121.535 C 421.454 122.165 420.943 122.676 420.313 122.676 L 418.155 122.676 C 417.524 122.676 417.013 122.165 417.013 121.535 L 417.013 118.179 Z"
        fillRule="evenodd"
    />
    <path
        fill="#503594"
        d="M 412.575 121.939 C 412.575 121.081 413.27 120.385 414.129 120.385 L 417.068 120.385 C 417.48 120.385 417.875 120.549 418.167 120.841 C 418.458 121.132 418.622 121.527 418.622 121.939 L 418.622 126.516 C 418.622 127.375 417.926 128.07 417.068 128.07 L 414.129 128.07 C 413.27 128.07 412.575 127.375 412.575 126.516 L 412.575 121.939 Z"
        fillRule="evenodd"
    />
    <path
        fill="#503594"
        d="M 413.267 119.451 C 413.267 118.111 414.353 117.025 415.693 117.025 C 416.336 117.025 416.953 117.281 417.408 117.736 C 417.862 118.191 418.118 118.807 418.118 119.451 L 418.118 119.545 C 418.118 120.885 417.032 121.97 415.693 121.97 C 414.353 121.97 413.267 120.885 413.267 119.545 L 413.267 119.451 Z"
        fillRule="evenodd"
    />
    <path
        fill="#ffffff"
        d="M 414.109 119.473 C 414.109 118.646 414.779 117.976 415.605 117.976 C 416.002 117.976 416.382 118.134 416.663 118.415 C 416.943 118.695 417.101 119.076 417.101 119.473 L 417.101 119.536 C 417.101 120.362 416.431 121.032 415.605 121.032 C 414.779 121.032 414.109 120.362 414.109 119.536 L 414.109 119.473 Z"
        fillRule="evenodd"
    />
    <path
        fill="#ffffff"
        d="M 413.472 122.555 C 413.472 121.925 413.983 121.414 414.613 121.414 L 416.772 121.414 C 417.075 121.414 417.365 121.534 417.579 121.749 C 417.793 121.963 417.913 122.253 417.913 122.555 L 417.913 125.911 C 417.913 126.541 417.402 127.052 416.772 127.052 L 414.613 127.052 C 413.983 127.052 413.472 126.541 413.472 125.911 L 413.472 122.555 Z"
        fillRule="evenodd"
    />
    <path
        fill="#503594"
        d="M 419.928 121.939 C 419.928 121.081 420.624 120.385 421.482 120.385 L 424.421 120.385 C 424.833 120.385 425.229 120.549 425.52 120.841 C 425.812 121.132 425.975 121.527 425.975 121.939 L 425.975 126.516 C 425.975 127.375 425.28 128.07 424.421 128.07 L 421.482 128.07 C 420.624 128.07 419.928 127.375 419.928 126.516 L 419.928 121.939 Z"
        fillRule="evenodd"
    />
    <path
        fill="#503594"
        d="M 420.621 119.451 C 420.621 118.111 421.707 117.025 423.046 117.025 C 423.689 117.025 424.306 117.281 424.761 117.736 C 425.216 118.191 425.471 118.807 425.471 119.451 L 425.471 119.545 C 425.471 120.885 424.386 121.97 423.046 121.97 C 421.707 121.97 420.621 120.885 420.621 119.545 L 420.621 119.451 Z"
        fillRule="evenodd"
    />
    <path
        fill="#ffffff"
        d="M 421.462 119.473 C 421.462 118.646 422.132 117.976 422.958 117.976 C 423.355 117.976 423.736 118.134 424.016 118.415 C 424.297 118.695 424.454 119.076 424.454 119.473 L 424.454 119.536 C 424.454 120.362 423.785 121.032 422.958 121.032 C 422.132 121.032 421.462 120.362 421.462 119.536 L 421.462 119.473 Z"
        fillRule="evenodd"
    />
    <path
        fill="#ffffff"
        d="M 420.826 122.555 C 420.826 121.925 421.337 121.414 421.967 121.414 L 424.125 121.414 C 424.428 121.414 424.718 121.534 424.932 121.749 C 425.146 121.963 425.267 122.253 425.267 122.555 L 425.267 125.911 C 425.267 126.541 424.756 127.052 424.125 127.052 L 421.967 127.052 C 421.337 127.052 420.826 126.541 420.826 125.911 L 420.826 122.555 Z"
        fillRule="evenodd"
    />
    <path
        fill="#503594"
        d="M 405.096 121.939 C 405.096 121.081 405.792 120.385 406.65 120.385 L 409.589 120.385 C 410.001 120.385 410.397 120.549 410.688 120.841 C 410.979 121.132 411.143 121.527 411.143 121.939 L 411.143 126.516 C 411.143 127.375 410.447 128.07 409.589 128.07 L 406.65 128.07 C 405.792 128.07 405.096 127.375 405.096 126.516 L 405.096 121.939 Z"
        fillRule="evenodd"
    />
    <path
        fill="#503594"
        d="M 405.789 119.451 C 405.789 118.111 406.875 117.025 408.214 117.025 C 408.857 117.025 409.474 117.281 409.929 117.736 C 410.384 118.191 410.639 118.807 410.639 119.451 L 410.639 119.545 C 410.639 120.885 409.553 121.97 408.214 121.97 C 406.875 121.97 405.789 120.885 405.789 119.545 L 405.789 119.451 Z"
        fillRule="evenodd"
    />
    <path
        fill="#ffffff"
        d="M 406.63 119.473 C 406.63 118.646 407.3 117.976 408.126 117.976 C 408.523 117.976 408.903 118.134 409.184 118.415 C 409.465 118.695 409.622 119.076 409.622 119.473 L 409.622 119.536 C 409.622 120.362 408.952 121.032 408.126 121.032 C 407.3 121.032 406.63 120.362 406.63 119.536 L 406.63 119.473 Z"
        fillRule="evenodd"
    />
    <path
        fill="#ffffff"
        d="M 405.994 122.555 C 405.994 121.925 406.504 121.414 407.135 121.414 L 409.293 121.414 C 409.596 121.414 409.886 121.534 410.1 121.749 C 410.314 121.963 410.434 122.253 410.434 122.555 L 410.434 125.911 C 410.434 126.541 409.923 127.052 409.293 127.052 L 407.135 127.052 C 406.504 127.052 405.994 126.541 405.994 125.911 L 405.994 122.555 Z"
        fillRule="evenodd"
    />
</svg>
