<svg
    viewBox="372.731 365.07 38.466 38.431"
    xmlns="http://www.w3.org/2000/svg"
    height="200"
    width="200"
>
    <path
        fill="#ffffff"
        d="M 389.494 397.019 C 389.494 397.786 389.04 398.378 388.447 398.378 C 387.889 398.378 387.436 397.786 387.436 397.019 L 387.436 388.589 C 387.436 387.823 387.889 387.231 388.447 387.231 C 389.04 387.231 389.494 387.823 389.494 388.589 L 389.494 397.019"
        fillRule="evenodd"
    />
    <path
        fill="#ffffff"
        d="M 385.482 386.813 C 385.203 387.509 384.575 387.927 384.052 387.718 C 383.494 387.544 383.25 386.813 383.494 386.116 L 386.25 378.278 C 386.494 377.582 387.156 377.163 387.68 377.373 C 388.238 377.547 388.482 378.278 388.238 378.975 L 385.482 386.813"
        fillRule="evenodd"
    />
    <path
        fill="#ffffff"
        d="M 396.261 385.977 C 396.505 386.639 396.296 387.37 395.773 387.579 C 395.249 387.788 394.586 387.405 394.307 386.743 L 391.238 379.01 C 390.994 378.313 391.203 377.581 391.726 377.372 C 392.249 377.163 392.912 377.547 393.191 378.243 L 396.261 385.977"
        fillRule="evenodd"
    />
    <path
        fill="#ffffff"
        d="M 391.97 397.019 C 391.97 397.786 391.517 398.378 390.924 398.378 C 390.366 398.378 389.877 397.786 389.877 397.019 L 389.877 388.589 C 389.877 387.823 390.366 387.231 390.924 387.231 C 391.517 387.231 391.97 387.823 391.97 388.589 L 391.97 397.019"
        fillRule="evenodd"
    />
    <path
        fill="#ffffff"
        d="M 391.97 374.446 C 391.97 374.83 391.866 375.213 391.656 375.561 C 391.447 375.909 391.133 376.188 390.819 376.397 C 390.47 376.571 390.087 376.676 389.703 376.676 C 389.284 376.676 388.935 376.571 388.587 376.397 C 388.238 376.188 387.994 375.909 387.784 375.561 C 387.575 375.213 387.47 374.83 387.47 374.446 C 387.47 374.063 387.575 373.68 387.784 373.332 C 387.959 372.983 388.238 372.705 388.587 372.496 C 388.935 372.287 389.319 372.217 389.703 372.217 C 390.122 372.217 390.47 372.287 390.819 372.496 C 391.133 372.67 391.447 372.983 391.656 373.332 C 391.866 373.68 391.97 374.063 391.97 374.446"
        fillRule="evenodd"
    />
    <path
        fill="#de1b50"
        d="M 411.197 384.268 C 411.197 387.662 410.305 390.953 408.626 393.902 C 406.911 396.816 404.477 399.25 401.563 400.93 C 398.615 402.609 395.324 403.501 391.964 403.501 C 388.604 403.501 385.279 402.609 382.365 400.93 C 379.416 399.25 376.982 396.816 375.302 393.902 C 373.588 390.953 372.731 387.662 372.731 384.268 C 372.731 380.909 373.622 377.583 375.302 374.669 C 377.016 371.755 379.416 369.321 382.365 367.641 C 385.279 365.927 388.604 365.07 391.964 365.07 C 395.324 365.07 398.615 365.927 401.563 367.641 C 404.477 369.321 406.911 371.755 408.626 374.669 C 410.305 377.583 411.197 380.909 411.197 384.268"
        fillRule="evenodd"
    />
    <path
        fill="#ffffff"
        d="M 391.758 395.959 C 391.758 396.679 391.278 397.296 390.73 397.296 C 390.147 397.296 389.701 396.679 389.701 395.959 L 389.701 387.594 C 389.701 386.84 390.147 386.257 390.73 386.257 C 391.278 386.257 391.758 386.84 391.758 387.594 L 391.758 395.959"
        fillRule="evenodd"
    />
    <path
        fill="#ffffff"
        d="M 387.747 385.811 C 387.507 386.497 386.89 386.908 386.341 386.702 C 385.827 386.531 385.587 385.811 385.827 385.125 L 388.536 377.378 C 388.81 376.692 389.427 376.281 389.941 376.452 C 390.49 376.658 390.73 377.378 390.49 378.063 L 387.747 385.811"
        fillRule="evenodd"
    />
    <path
        fill="#ffffff"
        d="M 398.443 385.023 C 398.718 385.674 398.512 386.394 397.964 386.6 C 397.449 386.84 396.798 386.428 396.524 385.777 L 393.507 378.132 C 393.232 377.446 393.438 376.726 393.987 376.521 C 394.501 376.315 395.152 376.692 395.427 377.378 L 398.443 385.023"
        fillRule="evenodd"
    />
    <path
        fill="#ffffff"
        d="M 394.192 395.959 C 394.192 396.679 393.712 397.296 393.164 397.296 C 392.581 397.296 392.135 396.679 392.135 395.959 L 392.135 387.594 C 392.135 386.84 392.581 386.257 393.164 386.257 C 393.712 386.257 394.192 386.84 394.192 387.594 L 394.192 395.959"
        fillRule="evenodd"
    />
    <path
        fill="#ffffff"
        d="M 394.158 373.607 C 394.158 374.018 394.055 374.395 393.884 374.738 C 393.678 375.081 393.404 375.321 393.061 375.526 C 392.718 375.698 392.341 375.835 391.964 375.835 C 391.552 375.835 391.141 375.698 390.833 375.526 C 390.49 375.321 390.25 375.081 390.044 374.738 C 389.838 374.395 389.735 374.018 389.735 373.607 C 389.735 373.229 389.838 372.852 390.044 372.509 C 390.215 372.167 390.49 371.892 390.833 371.687 C 391.175 371.481 391.552 371.412 391.964 371.412 C 392.341 371.412 392.718 371.481 393.061 371.687 C 393.404 371.892 393.678 372.167 393.884 372.509 C 394.055 372.852 394.158 373.229 394.158 373.607"
        fillRule="evenodd"
    />
    <path
        fill="#ffffff"
        d="M 389.735 376.452 L 394.261 376.452 L 396.626 389.239 L 387.336 389.239 L 389.735 376.452"
        fillRule="evenodd"
    />
</svg>