            <svg
                viewBox="434.572 368.824 38.432 38.431"
                xmlns="http://www.w3.org/2000/svg"
                height="200"
                width="200"
            >
                <path
                    fill="#3651a3"
                    d="M 473.004 388.022 C 473.004 391.416 472.113 394.707 470.433 397.656 C 468.753 400.57 466.319 403.004 463.405 404.684 C 460.491 406.363 457.131 407.255 453.771 407.255 C 450.377 407.255 447.086 406.363 444.172 404.684 C 441.258 403.004 438.823 400.57 437.144 397.656 C 435.464 394.707 434.572 391.416 434.572 388.022 C 434.572 384.663 435.464 381.337 437.144 378.423 C 438.823 375.509 441.258 373.075 444.172 371.395 C 447.086 369.681 450.411 368.824 453.771 368.824 C 457.165 368.824 460.491 369.681 463.405 371.395 C 466.319 373.075 468.753 375.509 470.433 378.423 C 472.113 381.337 473.004 384.663 473.004 388.022"
                    fillRule="evenodd"
                />
                <path
                    fill="#ffffff"
                    d="M 450.96 389.599 C 450.96 390.182 450.48 390.696 449.863 390.696 C 449.246 390.696 448.766 390.182 448.766 389.599 L 448.766 382.709 C 448.766 382.126 449.246 381.611 449.863 381.611 C 450.48 381.611 450.96 382.126 450.96 382.709 L 450.96 389.599"
                    fillRule="evenodd"
                />
                <path
                    fill="#ffffff"
                    d="M 459.017 389.599 C 459.017 390.182 458.537 390.696 457.919 390.696 C 457.302 390.696 456.822 390.182 456.822 389.599 L 456.822 382.709 C 456.822 382.126 457.302 381.611 457.919 381.611 C 458.537 381.611 459.017 382.126 459.017 382.709 L 459.017 389.599"
                    fillRule="evenodd"
                />
                <path
                    fill="#ffffff"
                    d="M 456.171 377.189 C 456.171 377.566 456.068 377.978 455.897 378.32 C 455.691 378.663 455.382 378.937 455.04 379.143 C 454.697 379.315 454.32 379.417 453.943 379.417 C 453.531 379.417 453.154 379.315 452.811 379.143 C 452.468 378.937 452.194 378.663 451.988 378.32 C 451.783 377.978 451.68 377.566 451.68 377.189 C 451.68 376.778 451.783 376.401 451.988 376.058 C 452.194 375.715 452.468 375.441 452.811 375.235 C 453.154 375.029 453.531 374.926 453.943 374.926 C 454.32 374.926 454.697 375.029 455.04 375.235 C 455.382 375.441 455.691 375.715 455.897 376.058 C 456.068 376.401 456.171 376.778 456.171 377.189"
                    fillRule="evenodd"
                />
                <path
                    fill="#ffffff"
                    d="M 453.703 399.781 C 453.703 400.535 453.154 401.152 452.434 401.152 C 451.748 401.152 451.166 400.535 451.166 399.781 L 451.166 391.313 C 451.166 390.559 451.748 389.942 452.434 389.942 C 453.154 389.942 453.703 390.559 453.703 391.313 L 453.703 399.781"
                    fillRule="evenodd"
                />
                <path
                    fill="#ffffff"
                    d="M 456.754 399.781 C 456.754 400.535 456.171 401.152 455.485 401.152 C 454.765 401.152 454.183 400.535 454.183 399.781 L 454.183 391.313 C 454.183 390.559 454.765 389.942 455.485 389.942 C 456.171 389.942 456.754 390.559 456.754 391.313 L 456.754 399.781"
                    fillRule="evenodd"
                />
                <path
                    fill="#ffffff"
                    d="M 448.766 382.537 C 448.766 382.537 449.246 380.137 450.72 379.897 L 456.994 379.897 C 456.994 379.897 459.119 380.24 458.914 382.949 L 456.719 382.949 L 456.754 391.485 L 454.217 391.485 L 454.183 390.696 L 453.703 390.696 L 453.703 391.553 L 451.166 391.553 L 451.166 383.051 L 450.788 383.051 L 448.766 382.537"
                    fillRule="evenodd"
                />
            </svg>
