<svg
    viewBox="549.463 439.582 38.26 38.259"
    xmlns="http://www.w3.org/2000/svg"
    height="200"
    width="200"
>
    <path
        fill="#f57f20"
        d="M 559.207 450.047 C 559.207 449.882 559.341 449.748 559.506 449.748 L 563.002 449.748 C 563.082 449.748 563.158 449.779 563.214 449.835 C 563.27 449.891 563.302 449.968 563.302 450.047 L 563.302 451.244 C 563.302 451.409 563.168 451.543 563.002 451.543 L 559.506 451.543 C 559.341 451.543 559.207 451.409 559.207 451.244 L 559.207 450.047 Z"
        fillRule="evenodd"
    />
    <path
        fill="#f57f20"
        d="M 559.207 464.693 C 559.207 464.632 559.256 464.583 559.317 464.583 L 563.191 464.583 C 563.221 464.583 563.249 464.595 563.269 464.615 C 563.29 464.636 563.302 464.664 563.302 464.693 L 563.302 465.134 C 563.302 465.195 563.252 465.244 563.191 465.244 L 559.317 465.244 C 559.256 465.244 559.207 465.195 559.207 465.134 L 559.207 464.693 Z"
        fillRule="evenodd"
    />
    <path
        fill="#f57f20"
        d="M 559.207 465.73 C 559.207 465.669 559.256 465.62 559.317 465.62 L 563.191 465.62 C 563.221 465.62 563.249 465.631 563.269 465.652 C 563.29 465.673 563.302 465.701 563.302 465.73 L 563.302 466.171 C 563.302 466.232 563.252 466.281 563.191 466.281 L 559.317 466.281 C 559.256 466.281 559.207 466.232 559.207 466.171 L 559.207 465.73 Z"
        fillRule="evenodd"
    />
    <path
        fill="#f57f20"
        d="M 587.723 458.711 C 587.723 462.071 586.832 465.362 585.152 468.276 C 583.472 471.19 581.072 473.59 578.158 475.27 C 575.244 476.95 571.953 477.841 568.593 477.841 C 565.233 477.841 561.942 476.95 559.028 475.27 C 556.114 473.59 553.714 471.19 552.034 468.276 C 550.354 465.362 549.463 462.071 549.463 458.711 C 549.463 455.352 550.354 452.061 552.034 449.147 C 553.714 446.233 556.114 443.833 559.028 442.153 C 561.942 440.473 565.233 439.582 568.593 439.582 C 571.953 439.582 575.244 440.473 578.158 442.153 C 581.072 443.833 583.472 446.233 585.152 449.147 C 586.832 452.061 587.723 455.352 587.723 458.711"
        fillRule="evenodd"
    />
    <path
        fill="#ffffff"
        d="M 576.195 447.66 L 576.169 447.66 L 560.496 447.66 C 559.727 447.608 558.153 448.816 558.153 450.442 L 558.153 467.084 C 558.163 467.878 558.801 469.844 561.055 469.844 L 579.061 469.844 L 579.061 450.421 L 577.56 450.421 L 577.56 468.323 L 561.055 468.323 C 559.392 468.323 559.246 465.698 561.055 465.698 L 576.195 465.698 L 576.195 447.697 L 576.195 447.66"
        fillRule="evenodd"
    />
</svg>