<svg
    viewBox="493.206 372.413 35.118 35.118"
    xmlns="http://www.w3.org/2000/svg"
    height="200"
    width="200"
>
    <path
        fill="#ed2389"
        d="M 493.206 389.972 C 493.206 380.274 501.067 372.413 510.765 372.413 C 515.422 372.413 519.888 374.263 523.181 377.556 C 526.474 380.849 528.324 385.315 528.324 389.972 C 528.324 399.67 520.462 407.531 510.765 407.531 C 501.067 407.531 493.206 399.67 493.206 389.972 Z"
        fillRule="evenodd"
    />
    <path
        fill="#ffffff"
        d="M 514.261 396.727 C 514.261 394.883 515.755 393.389 517.599 393.389 C 518.485 393.389 519.334 393.74 519.96 394.366 C 520.586 394.993 520.938 395.842 520.938 396.727 C 520.938 398.571 519.443 400.066 517.599 400.066 C 515.755 400.066 514.261 398.571 514.261 396.727 Z"
        fillRule="evenodd"
    />
    <path
        fill="#ed2389"
        d="M 516.205 396.736 C 516.205 395.962 516.832 395.335 517.606 395.335 C 517.978 395.335 518.334 395.482 518.597 395.745 C 518.86 396.008 519.008 396.365 519.008 396.736 C 519.008 397.51 518.38 398.138 517.606 398.138 C 516.832 398.138 516.205 397.51 516.205 396.736 Z"
        fillRule="evenodd"
    />
    <path
        fill="#ffffff"
        d="M 500.641 384.825 C 500.641 382.068 502.912 379.833 505.712 379.833 C 507.057 379.833 508.347 380.359 509.298 381.295 C 510.249 382.231 510.783 383.501 510.783 384.825 C 510.783 387.582 508.513 389.817 505.712 389.817 C 502.912 389.817 500.641 387.582 500.641 384.825 Z"
        fillRule="evenodd"
    />
    <path
        fill="#ffffff"
        d="M 507.678 386.799 C 508.661 385.816 510.254 385.816 511.237 386.799 L 516.717 392.279 C 517.189 392.751 517.454 393.391 517.454 394.059 C 517.454 394.726 517.189 395.366 516.717 395.838 C 515.734 396.821 514.141 396.821 513.158 395.838 L 507.678 390.358 C 506.695 389.375 506.695 387.782 507.678 386.799 Z"
        fillRule="evenodd"
    />
    <path
        fill="#ed2389"
        d="M 502.111 380.114 C 502.611 379.614 503.422 379.614 503.922 380.114 L 506.017 382.208 C 506.257 382.448 506.392 382.774 506.392 383.114 C 506.392 383.453 506.257 383.779 506.017 384.019 L 504.899 385.137 C 504.398 385.637 503.588 385.637 503.088 385.137 L 500.993 383.043 C 500.493 382.543 500.493 381.732 500.993 381.232 L 502.111 380.114 Z"
        fillRule="evenodd"
    />
</svg>