            <svg
                viewBox="196.062 366.477 38.929 38.876"
                xmlns="http://www.w3.org/2000/svg"
                height="200"
                width="200"
            >
                <path
                    fill="#6e6967"
                    d="M 234.991 385.915 C 234.991 389.329 234.084 392.673 232.374 395.634 C 230.665 398.56 228.223 401.034 225.258 402.74 C 222.293 404.447 218.945 405.353 215.526 405.353 C 212.108 405.353 208.759 404.447 205.794 402.74 C 202.829 401.034 200.387 398.56 198.678 395.634 C 196.969 392.673 196.062 389.329 196.062 385.915 C 196.062 382.501 196.969 379.122 198.678 376.196 C 200.387 373.235 202.829 370.762 205.794 369.055 C 208.759 367.348 212.108 366.477 215.526 366.477 C 218.945 366.477 222.293 367.348 225.258 369.055 C 228.223 370.762 230.665 373.235 232.374 376.196 C 234.084 379.122 234.991 382.501 234.991 385.915"
                    fillRule="evenodd"
                />
                <path
                    fill="#ffffff"
                    d="M 218.735 393.718 C 217.863 394.136 216.154 394.589 213.922 394.589 C 208.794 394.589 204.957 391.35 204.957 385.393 C 204.957 379.715 208.794 375.883 214.445 375.883 C 216.712 375.883 218.142 376.371 218.77 376.684 L 218.177 378.6 C 217.305 378.147 216.014 377.834 214.515 377.834 C 210.259 377.834 207.433 380.551 207.433 385.323 C 207.433 389.782 209.98 392.604 214.41 392.604 C 215.84 392.604 217.305 392.325 218.247 391.872 L 218.735 393.718"
                    fillRule="evenodd"
                />
                <path
                    fill="#ffffff"
                    d="M 224.003 394.31 L 221.665 394.31 L 221.665 376.161 L 224.003 376.161 L 224.003 394.31"
                    fillRule="evenodd"
                />
            </svg>
