            <svg
                viewBox="313.868 363.774 38.926 38.875"
                xmlns="http://www.w3.org/2000/svg"
                height="200"
                width="200"
            >
                <path
                    fill="#4cb852"
                    d="M 352.794 383.211 C 352.794 386.625 351.887 389.969 350.178 392.93 C 348.469 395.891 346.027 398.33 343.062 400.036 C 340.097 401.743 336.749 402.649 333.331 402.649 C 329.912 402.649 326.564 401.743 323.599 400.036 C 320.634 398.33 318.193 395.891 316.484 392.93 C 314.774 389.969 313.868 386.625 313.868 383.211 C 313.868 379.798 314.774 376.454 316.484 373.493 C 318.193 370.532 320.634 368.093 323.599 366.386 C 326.564 364.679 329.912 363.774 333.331 363.774 C 336.749 363.774 340.097 364.679 343.062 366.386 C 346.027 368.093 348.469 370.532 350.178 373.493 C 351.887 376.454 352.794 379.798 352.794 383.211"
                    fillRule="evenodd"
                />
                <path
                    fill="#ffffff"
                    d="M 333.629 390.91 L 329.199 390.91 L 329.199 387.252 L 338.024 387.252 L 338.024 390.91 L 333.629 390.91"
                    fillRule="evenodd"
                />
                <path
                    fill="#ffffff"
                    d="M 342.523 391.571 C 342.523 392.059 341.895 392.477 341.093 392.477 L 326.234 392.477 C 325.432 392.477 324.804 392.059 324.804 391.571 C 324.804 391.049 325.432 390.666 326.234 390.666 L 341.093 390.666 C 341.895 390.666 342.523 391.049 342.523 391.571"
                    fillRule="evenodd"
                />
                <path
                    fill="#ffffff"
                    d="M 344.363 375.076 C 344.363 375.685 343.587 376.206 342.596 376.206 L 324.234 376.206 C 323.242 376.206 322.467 375.685 322.467 375.076 C 322.467 374.424 323.242 373.946 324.234 373.946 L 342.596 373.946 C 343.587 373.946 344.363 374.424 344.363 375.076"
                    fillRule="evenodd"
                />
                <path
                    fill="#ffffff"
                    d="M 344.398 387.637 C 344.398 388.245 343.622 388.767 342.631 388.767 L 324.269 388.767 C 323.277 388.767 322.501 388.245 322.501 387.637 C 322.501 386.984 323.277 386.506 324.269 386.506 L 342.631 386.506 C 343.622 386.506 344.398 386.984 344.398 387.637"
                    fillRule="evenodd"
                />
                <path
                    fill="#ffffff"
                    d="M 323.415 388.569 C 322.806 388.569 322.283 388.052 322.283 387.39 L 322.283 375.141 C 322.283 374.48 322.806 373.962 323.415 373.962 C 324.068 373.962 324.547 374.48 324.547 375.141 L 324.547 387.39 C 324.547 388.052 324.068 388.569 323.415 388.569"
                    fillRule="evenodd"
                />
                <path
                    fill="#ffffff"
                    d="M 343.325 388.569 C 342.715 388.569 342.193 388.052 342.193 387.39 L 342.193 375.141 C 342.193 374.48 342.715 373.962 343.325 373.962 C 343.978 373.962 344.457 374.48 344.457 375.141 L 344.457 387.39 C 344.457 388.052 343.978 388.569 343.325 388.569"
                    fillRule="evenodd"
                />
            </svg>
