<svg
    viewBox="617.3367 372.0326 37.251 37.2495"
    xmlns="http://www.w3.org/2000/svg"
    height="200"
    width="200"
>
    <path
        fill="#00aaaa"
        d="m654.5877 390.65735c0 3.2666626 -0.8532715 6.484558 -2.4866333 9.312378c-1.6577759 2.8278503 -3.998169 5.192505 -6.826111 6.825836c-2.827942 1.6333313 -6.0459595 2.4865723 -9.312744 2.4865723c-3.2667847 0 -6.4848022 -0.85324097 -9.312744 -2.4865723c-2.828003 -1.6333313 -5.192749 -3.9979858 -6.826111 -6.825836c-1.6577759 -2.8278198 -2.4866333 -6.0457153 -2.4866333 -9.312378c0 -3.266632 0.85321045 -6.4845276 2.4866333 -9.312378c1.6577759 -2.8278503 3.998108 -5.1681213 6.826111 -6.8014526c2.827942 -1.6577148 6.0459595 -2.5109253 9.312744 -2.5109253c3.2667847 0 6.4848022 0.85321045 9.312744 2.5109253c2.827942 1.6333313 5.168335 3.9736023 6.826111 6.8014526c1.6333618 2.8278503 2.4866333 6.045746 2.4866333 9.312378"
        fillRule="evenodd"
    />
    <path
        fill="#ffffff"
        d="m624.7235 399.0922c-0.26818848 -0.2925415 -0.24377441 -0.73135376 0.04876709 -0.9995117l6.0947266 -5.5581665c0.31689453 -0.26815796 0.7557373 -0.24377441 1.0239258 0.04876709l2.1940918 2.4134216c0.26818848 0.292511 0.24377441 0.7557068 -0.04876709 1.0238647l-6.1190796 5.533783c-0.29260254 0.26815796 -0.75579834 0.24380493 -1.0239258 -0.048736572l-2.1697388 -2.4134216"
        fillRule="evenodd"
    />
    <path
        fill="#ffffff"
        d="m641.9594 380.0286c4.168762 1.462677 6.387268 6.021332 4.9489136 10.189972c-1.145813 3.3153992 -4.2419434 5.3875427 -7.557495 5.3875427c-0.8776245 0 -1.755249 -0.14627075 -2.6328735 -0.43881226c-4.1688232 -1.462677 -6.387329 -5.9969788 -4.9245605 -10.190002c1.145813 -3.2910156 4.2419434 -5.387512 7.557434 -5.387512c0.8532715 0 1.730957 0.14627075 2.6085815 0.43881226m-2.6085815 1.730835c-2.4866333 0 -4.705078 1.5845642 -5.5095825 3.9248352c-0.5119629 1.4870605 -0.41448975 3.0716248 0.24377441 4.4611816c0.6826172 1.4139099 1.8771362 2.4621582 3.3399048 2.9740906c0.6338501 0.19503784 1.2677002 0.31692505 1.9259033 0.31692505c2.4866943 0 4.680786 -1.5845642 5.5096436 -3.9248352c0.5119629 -1.4870605 0.41448975 -3.0716248 -0.26812744 -4.4611816c-0.6826172 -1.3895569 -1.8771973 -2.4621887 -3.3399048 -2.9497375c-0.6094971 -0.21939087 -1.2677612 -0.34127808 -1.9016113 -0.34127808"
        fillRule="evenodd"
    />
</svg>