<svg
    viewBox="550.212 371.59 38.9431 38.946"
    xmlns="http://www.w3.org/2000/svg"
    height="200"
    width="200"
>
    <path
        fill="#b81f2d"
        d="M 589.155 391.063 C 589.155 394.465 588.253 397.797 586.552 400.782 C 584.817 403.733 582.353 406.197 579.402 407.933 C 576.417 409.633 573.085 410.536 569.684 410.536 C 566.282 410.536 562.916 409.633 559.965 407.933 C 556.981 406.197 554.516 403.733 552.816 400.782 C 551.08 397.797 550.212 394.465 550.212 391.063 C 550.212 387.661 551.115 384.294 552.816 381.344 C 554.551 378.359 556.981 375.894 559.965 374.193 C 562.916 372.458 566.282 371.59 569.684 371.59 C 573.085 371.59 576.417 372.458 579.402 374.193 C 582.353 375.894 584.817 378.359 586.552 381.344 C 588.253 384.294 589.155 387.661 589.155 391.063"
        fillRule="evenodd"
    />
    <path
        fill="#ffffff"
        d="M 568.261 395.992 L 556.981 395.992 L 556.981 381.656 L 579.541 381.656 L 579.541 395.992 L 568.261 395.992"
        fillRule="evenodd"
    />
    <path
        fill="#000000"
        fillOpacity="0.0"
        d="M 568.261 395.992 L 556.981 395.992 L 556.981 381.656 L 579.541 381.656 L 579.541 395.992 L 568.261 395.992"
        fillRule="evenodd"
    />
    <path
        stroke="#ffffff"
        strokeWidth="1.4724409448818898"
        strokeLinejoin="round"
        strokeLinecap="butt"
        d="M 568.261 395.992 L 556.981 395.992 L 556.981 381.656 L 579.541 381.656 L 579.541 395.992 L 568.261 395.992"
        fillRule="evenodd"
    />
    <path
        fill="#ffffff"
        d="M 583.567 399.185 C 583.567 402.066 583.567 404.427 578.326 404.427 C 572.599 404.427 573.12 402.066 573.12 399.185 L 573.12 395.645 C 573.12 392.764 575.446 390.438 578.326 390.438 C 581.207 390.438 583.567 392.764 583.567 395.645 L 583.567 399.185"
        fillRule="evenodd"
    />
    <path
        fill="#000000"
        fillOpacity="0.0"
        d="M 583.567 399.185 C 583.567 402.066 583.567 404.427 578.326 404.427 C 572.599 404.427 573.12 402.066 573.12 399.185 L 573.12 395.645 C 573.12 392.764 575.446 390.438 578.326 390.438 C 581.207 390.438 583.567 392.764 583.567 395.645 L 583.567 399.185"
        fillRule="evenodd"
    />
    <path
        stroke="#b81f2d"
        strokeWidth="1.4724409448818898"
        strokeMiterlimit="8.0"
        strokeLinecap="butt"
        d="M 583.567 399.185 C 583.567 402.066 583.567 404.427 578.326 404.427 C 572.599 404.427 573.12 402.066 573.12 399.185 L 573.12 395.645 C 573.12 392.764 575.446 390.438 578.326 390.438 C 581.207 390.438 583.567 392.764 583.567 395.645 L 583.567 399.185"
        fillRule="evenodd"
    />
    <path
        fill="#ffffff"
        d="M 582.734 389.154 C 582.734 389.918 582.561 390.646 582.179 391.306 C 581.797 391.931 581.207 392.521 580.582 392.903 C 579.923 393.285 579.194 393.458 578.465 393.458 C 577.702 393.458 576.938 393.285 576.313 392.903 C 575.654 392.521 575.099 391.931 574.717 391.306 C 574.335 390.646 574.161 389.918 574.161 389.154 C 574.161 388.425 574.335 387.661 574.717 387.037 C 575.099 386.377 575.654 385.822 576.313 385.44 C 576.938 385.058 577.702 384.884 578.465 384.884 C 579.194 384.884 579.923 385.058 580.582 385.44 C 581.207 385.822 581.797 386.377 582.179 387.037 C 582.561 387.661 582.734 388.425 582.734 389.154"
        fillRule="evenodd"
    />
    <path
        fill="#000000"
        fillOpacity="0.0"
        d="M 582.734 389.154 C 582.734 389.883 582.561 390.646 582.179 391.306 C 581.797 391.931 581.207 392.521 580.582 392.903 C 579.923 393.285 579.194 393.458 578.465 393.458 C 577.702 393.458 576.938 393.285 576.313 392.903 C 575.654 392.521 575.099 391.931 574.717 391.306 C 574.335 390.646 574.161 389.883 574.161 389.154 C 574.161 388.39 574.335 387.661 574.717 387.037 C 575.099 386.377 575.654 385.822 576.313 385.44 C 576.938 385.058 577.702 384.884 578.465 384.884 C 579.194 384.884 579.923 385.058 580.582 385.44 C 581.207 385.822 581.797 386.377 582.179 387.037 C 582.561 387.661 582.734 388.39 582.734 389.154"
        fillRule="evenodd"
    />
    <path
        stroke="#b81f2d"
        strokeWidth="1.4724409448818898"
        strokeMiterlimit="8.0"
        strokeLinecap="butt"
        d="M 582.734 389.154 C 582.734 389.883 582.561 390.646 582.179 391.306 C 581.797 391.931 581.207 392.521 580.582 392.903 C 579.923 393.285 579.194 393.458 578.465 393.458 C 577.702 393.458 576.938 393.285 576.313 392.903 C 575.654 392.521 575.099 391.931 574.717 391.306 C 574.335 390.646 574.161 389.883 574.161 389.154 C 574.161 388.39 574.335 387.661 574.717 387.037 C 575.099 386.377 575.654 385.822 576.313 385.44 C 576.938 385.058 577.702 384.884 578.465 384.884 C 579.194 384.884 579.923 385.058 580.582 385.44 C 581.207 385.822 581.797 386.377 582.179 387.037 C 582.561 387.661 582.734 388.39 582.734 389.154"
        fillRule="evenodd"
    />
    <path
        fill="#ffffff"
        d="M 575.515 396.964 C 575.064 397.485 574.439 397.658 574.057 397.346 L 567.567 391.965 C 567.22 391.653 567.254 390.994 567.706 390.473 C 568.122 389.952 568.782 389.779 569.129 390.091 L 575.619 395.471 C 576.001 395.784 575.932 396.443 575.515 396.964"
        fillRule="evenodd"
    />
    <path
        fill="#000000"
        fillOpacity="0.0"
        d="M 575.515 396.964 C 575.064 397.485 574.439 397.658 574.057 397.346 L 567.567 391.965 C 567.22 391.653 567.254 390.994 567.706 390.473 C 568.122 389.952 568.782 389.779 569.129 390.091 L 575.619 395.471 C 576.001 395.784 575.932 396.443 575.515 396.964"
        fillRule="evenodd"
    />
    <path
        stroke="#b81f2d"
        strokeWidth="1.4724409448818898"
        strokeMiterlimit="8.0"
        strokeLinecap="butt"
        d="M 575.515 396.964 C 575.064 397.485 574.439 397.658 574.057 397.346 L 567.567 391.965 C 567.22 391.653 567.254 390.994 567.706 390.473 C 568.122 389.952 568.782 389.779 569.129 390.091 L 575.619 395.471 C 576.001 395.784 575.932 396.443 575.515 396.964"
        fillRule="evenodd"
    />
    <path
        fill="#b81f2d"
        d="M 574.474 383.982 C 574.474 384.399 574.161 384.711 573.78 384.711 L 559.202 384.711 C 558.785 384.711 558.473 384.399 558.473 383.982 C 558.473 383.6 558.785 383.288 559.202 383.288 L 573.78 383.288 C 574.161 383.288 574.474 383.6 574.474 383.982"
        fillRule="evenodd"
    />
    <path
        fill="#b81f2d"
        d="M 571.385 387.037 C 571.385 387.349 571.107 387.592 570.795 387.592 L 559.132 387.592 C 558.82 387.592 558.577 387.349 558.577 387.037 C 558.577 386.689 558.82 386.446 559.132 386.446 L 570.795 386.446 C 571.107 386.446 571.385 386.689 571.385 387.037"
        fillRule="evenodd"
    />
</svg>