<svg
    viewBox="255.795 368.474 37.251 37.225"
    xmlns="http://www.w3.org/2000/svg"
    height="200"
    width="200"
>
    <path
        fill="#f57f20"
        d="M 293.046 387.074 C 293.046 390.365 292.192 393.559 290.559 396.387 C 288.926 399.215 286.561 401.579 283.733 403.213 C 280.905 404.846 277.687 405.699 274.42 405.699 C 271.153 405.699 267.935 404.846 265.107 403.213 C 262.279 401.579 259.939 399.215 258.306 396.387 C 256.672 393.559 255.795 390.365 255.795 387.074 C 255.795 383.808 256.672 380.614 258.306 377.762 C 259.939 374.934 262.279 372.594 265.107 370.96 C 267.935 369.327 271.153 368.474 274.42 368.474 C 277.687 368.474 280.905 369.327 283.733 370.96 C 286.561 372.594 288.926 374.934 290.559 377.762 C 292.192 380.614 293.046 383.808 293.046 387.074"
        fillRule="evenodd"
    />
    <path
        fill="#ffffff"
        d="M 261.372 378.66 L 288.718 378.66 L 288.718 382.154 L 261.372 382.154 L 261.372 378.66 Z"
        fillRule="evenodd"
    />
    <path
        fill="#ffffff"
        d="M 261.356 392.505 L 288.702 392.505 L 288.702 395.999 L 261.356 395.999 L 261.356 392.505 Z"
        fillRule="evenodd"
    />
    <path
        fill="#ffffff"
        d="M 288.703 380.305 L 288.703 394.392 L 285.209 394.392 L 285.209 380.305 L 288.703 380.305 Z"
        fillRule="evenodd"
    />
    <path
        fill="#ffffff"
        d="M 274.996 389.702 L 283.843 389.702 L 283.843 395.995 L 274.996 395.995 L 274.996 389.702 Z"
        fillRule="evenodd"
    />
    <path
        fill="#ffffff"
        d="M 264.851 380.055 L 264.851 394.142 L 261.357 394.142 L 261.357 380.055 L 264.851 380.055 Z"
        fillRule="evenodd"
    />
</svg>